<?xml version="1.0" encoding="iso-8859-1"?>
<!-- Generator: Adobe Illustrator 19.1.0, SVG Export Plug-In . SVG Version: 6.00 Build 0)  -->
<svg version="1.1" id="Capa_1" xmlns="http://www.w3.org/2000/svg" xmlns:xlink="http://www.w3.org/1999/xlink" x="0px" y="0px"
	 viewBox="0 0 455.5 455.5" style="enable-background:new 0 0 455.5 455.5;" xml:space="preserve">
<g>
	<path d="M242.56,420.117l-60.104-60.103l132.781-132.781l60.103,60.104L242.56,420.117z"/>
	<polygon points="235.787,14.793 235.787,85.5 306.494,85.5 	"/>
	<path d="M152.04,348H70.787v-30H182.04l40-40H70.787v-30H252.04l69.247-69.247V115.5h-115.5V0h-185.5v416h107.062l15.702-53.79
		l2.153-7.374L152.04,348z M70.787,178h200v30h-200V178z"/>
	<path d="M336.449,206.018l38.661-38.661l60.104,60.104l-38.661,38.661L336.449,206.018z"/>
	<polygon points="158.602,416 147.071,455.5 215.534,435.514 167.057,387.036 	"/>
</g>
<g>
</g>
<g>
</g>
<g>
</g>
<g>
</g>
<g>
</g>
<g>
</g>
<g>
</g>
<g>
</g>
<g>
</g>
<g>
</g>
<g>
</g>
<g>
</g>
<g>
</g>
<g>
</g>
<g>
</g>
</svg>
