<?xml version="1.0" encoding="iso-8859-1"?>
<!-- Generator: Adobe Illustrator 19.0.0, SVG Export Plug-In . SVG Version: 6.00 Build 0)  -->
<svg version="1.1" id="Layer_1" xmlns="http://www.w3.org/2000/svg" xmlns:xlink="http://www.w3.org/1999/xlink" x="0px" y="0px"
	 viewBox="0 0 512 512" style="enable-background:new 0 0 512 512;" xml:space="preserve">
<g>
	<g>
		<g>
			<path d="M426.667,281.883V117.333c0-2.014-0.707-3.79-1.676-5.397l0.155-0.092l-64-106.667C359.229,1.969,355.75,0,352,0H74.667
				c-3.75,0-7.229,1.969-9.146,5.177l-64,106.667l0.155,0.092C0.707,113.543,0,115.319,0,117.333V416
				c0,5.896,4.771,10.667,10.667,10.667h271.216C295.862,475.84,341.082,512,394.667,512C459.354,512,512,459.365,512,394.667
				C512,341.074,475.835,295.861,426.667,281.883z M345.958,21.333l51.202,85.333H275.41l-17.066-85.333H345.958z M190.077,21.333
				h46.53l17.238,85.333H173.01L190.077,21.333z M256,128v42.667h-85.375L170.486,128H256z M80.708,21.333h87.639l-16.901,85.333
				H29.507L80.708,21.333z M277.874,405.333H21.333V128h128v53.333c0,5.896,4.771,10.667,10.667,10.667h106.667
				c5.896,0,10.667-4.771,10.667-10.667L277.165,128h128.168v149.874c-3.518-0.319-7.066-0.54-10.667-0.54
				c-64.688,0-117.333,52.635-117.333,117.333C277.333,398.267,277.555,401.815,277.874,405.333z M394.667,490.667
				c-52.938,0-96-43.063-96-96s43.063-96,96-96s96,43.063,96,96S447.604,490.667,394.667,490.667z"/>
			<path d="M405.333,390.25v-59.583c0-5.896-4.771-10.667-10.667-10.667S384,324.771,384,330.667v64
				c0,2.833,1.125,5.542,3.125,7.542l32,32c2.083,2.083,4.813,3.125,7.542,3.125s5.458-1.042,7.542-3.125
				c4.167-4.167,4.167-10.917,0-15.083L405.333,390.25z"/>
		</g>
	</g>
</g>
<g>
</g>
<g>
</g>
<g>
</g>
<g>
</g>
<g>
</g>
<g>
</g>
<g>
</g>
<g>
</g>
<g>
</g>
<g>
</g>
<g>
</g>
<g>
</g>
<g>
</g>
<g>
</g>
<g>
</g>
</svg>
