<?xml version="1.0" encoding="iso-8859-1"?>
<!-- Generator: Adobe Illustrator 16.0.0, SVG Export Plug-In . SVG Version: 6.00 Build 0)  -->
<!DOCTYPE svg PUBLIC "-//W3C//DTD SVG 1.1//EN" "http://www.w3.org/Graphics/SVG/1.1/DTD/svg11.dtd">
<svg version="1.1" id="Capa_1" xmlns="http://www.w3.org/2000/svg" xmlns:xlink="http://www.w3.org/1999/xlink" x="0px" y="0px"
	 width="950.281px" height="950.281px" viewBox="0 0 950.281 950.281" style="enable-background:new 0 0 950.281 950.281;"
	 xml:space="preserve">
<g>
	<g>
		<path d="M884.212,222.588L661.626,0H66.069v950.281h818.143V222.588z M681.542,116.083l86.588,86.588h-86.588V116.083z
			 M816.212,882.281H134.069V68h479.473v202.671h202.67V882.281z"/>
		<rect x="429.234" y="370.392" width="329.984" height="68"/>
		<polygon points="251.474,540.363 224.752,513.641 176.668,561.723 251.474,636.529 375.047,512.957 326.964,464.875 		"/>
		<polygon points="251.474,709.744 224.752,683.021 176.669,731.105 251.474,805.912 375.047,682.34 326.964,634.256 		"/>
		<polygon points="251.474,370.981 224.752,344.258 176.669,392.341 251.474,467.147 375.047,343.575 326.964,295.492 		"/>
		<rect x="429.234" y="539.885" width="329.984" height="68"/>
		<rect x="429.234" y="709.375" width="329.984" height="68"/>
	</g>
</g>
<g>
</g>
<g>
</g>
<g>
</g>
<g>
</g>
<g>
</g>
<g>
</g>
<g>
</g>
<g>
</g>
<g>
</g>
<g>
</g>
<g>
</g>
<g>
</g>
<g>
</g>
<g>
</g>
<g>
</g>
</svg>
