<?xml version="1.0" encoding="iso-8859-1"?>
<!-- Generator: Adobe Illustrator 19.0.0, SVG Export Plug-In . SVG Version: 6.00 Build 0)  -->
<svg version="1.1" id="Capa_1" xmlns="http://www.w3.org/2000/svg" xmlns:xlink="http://www.w3.org/1999/xlink" x="0px" y="0px"
	 viewBox="0 0 512.001 512.001" style="enable-background:new 0 0 512.001 512.001;" xml:space="preserve">
<g>
	<g>
		<path d="M218.511,182.641H74.214c-4.238,0-7.674,3.435-7.674,7.674c0,4.238,3.436,7.674,7.674,7.674h144.297
			c4.238,0,7.674-3.435,7.674-7.674S222.749,182.641,218.511,182.641z"/>
	</g>
</g>
<g>
	<g>
		<path d="M218.511,336.283H74.214c-4.238,0-7.674,3.435-7.674,7.674s3.436,7.674,7.674,7.674h144.297
			c4.238,0,7.674-3.435,7.674-7.674S222.749,336.283,218.511,336.283z"/>
	</g>
</g>
<g>
	<g>
		<path d="M218.511,373.463H74.214c-4.238,0-7.674,3.435-7.674,7.674s3.436,7.674,7.674,7.674h144.297
			c4.238,0,7.674-3.436,7.674-7.674C226.185,376.898,222.749,373.463,218.511,373.463z"/>
	</g>
</g>
<g>
	<g>
		<path d="M143.156,299.105H74.214c-4.238,0-7.674,3.435-7.674,7.674s3.436,7.674,7.674,7.674h68.942
			c4.238,0,7.674-3.435,7.674-7.674S147.394,299.105,143.156,299.105z"/>
	</g>
</g>
<g>
	<g>
		<path d="M117.196,221.462H74.214c-4.238,0-7.674,3.435-7.674,7.674c0,4.238,3.436,7.674,7.674,7.674h42.982
			c4.238,0,7.674-3.435,7.674-7.674S121.434,221.462,117.196,221.462z"/>
	</g>
</g>
<g>
	<g>
		<path d="M98.909,260.283H74.214c-4.238,0-7.674,3.435-7.674,7.674s3.436,7.674,7.674,7.674h24.695
			c4.238,0,7.674-3.435,7.674-7.674S103.147,260.283,98.909,260.283z"/>
	</g>
</g>
<g>
	<g>
		<path d="M160.179,260.283h-34.045c-4.238,0-7.674,3.435-7.674,7.674s3.436,7.674,7.674,7.674h34.045
			c4.238,0,7.674-3.435,7.674-7.674S164.417,260.283,160.179,260.283z"/>
	</g>
</g>
<g>
	<g>
		<path d="M219.471,260.283h-29.664c-4.238,0-7.674,3.435-7.674,7.674s3.436,7.674,7.674,7.674h29.664
			c4.238,0,7.674-3.435,7.674-7.674S223.71,260.283,219.471,260.283z"/>
	</g>
</g>
<g>
	<g>
		<path d="M219.471,299.105h-44.18c-4.238,0-7.674,3.435-7.674,7.674s3.436,7.674,7.674,7.674h44.18
			c4.238,0,7.674-3.435,7.674-7.674S223.709,299.105,219.471,299.105z"/>
	</g>
</g>
<g>
	<g>
		<path d="M218.511,221.462H150.28c-4.238,0-7.674,3.435-7.674,7.674s3.436,7.674,7.674,7.674h68.231
			c4.238,0,7.674-3.435,7.674-7.674S222.749,221.462,218.511,221.462z"/>
	</g>
</g>
<g>
	<g>
		<circle cx="294.11" cy="201.82" r="8.399"/>
	</g>
</g>
<g>
	<g>
		<path d="M382.383,194.143h-54.965c-4.238,0-7.674,3.435-7.674,7.674c0,4.238,3.435,7.674,7.674,7.674h54.965
			c4.238,0,7.674-3.435,7.674-7.674C390.057,197.578,386.621,194.143,382.383,194.143z"/>
	</g>
</g>
<g>
	<g>
		<circle cx="294.11" cy="237.09" r="8.399"/>
	</g>
</g>
<g>
	<g>
		<path d="M344.931,229.419h-17.513c-4.238,0-7.674,3.435-7.674,7.674c0,4.239,3.435,7.674,7.674,7.674h17.513
			c4.238,0,7.674-3.435,7.674-7.674C352.605,232.854,349.169,229.419,344.931,229.419z"/>
	</g>
</g>
<g>
	<g>
		<circle cx="294.11" cy="341.24" r="8.399"/>
	</g>
</g>
<g>
	<g>
		<path d="M354.9,333.563h-27.482c-4.238,0-7.674,3.435-7.674,7.674s3.435,7.674,7.674,7.674H354.9c4.238,0,7.674-3.435,7.674-7.674
			S359.138,333.563,354.9,333.563z"/>
	</g>
</g>
<g>
	<g>
		<circle cx="294.11" cy="375.67" r="8.399"/>
	</g>
</g>
<g>
	<g>
		<path d="M370.843,367.999h-43.426c-4.238,0-7.674,3.435-7.674,7.674s3.436,7.674,7.674,7.674h43.426
			c4.238,0,7.674-3.435,7.674-7.674S375.081,367.999,370.843,367.999z"/>
	</g>
</g>
<g>
	<g>
		<path d="M400.094,333.563H384.76c-4.238,0-7.674,3.435-7.674,7.674s3.436,7.674,7.674,7.674h15.334
			c4.238,0,7.674-3.435,7.674-7.674C407.768,336.999,404.332,333.563,400.094,333.563z"/>
	</g>
</g>
<g>
	<g>
		<path d="M402.322,229.418h-28.845c-4.239-0.001-7.674,3.435-7.674,7.674s3.436,7.674,7.674,7.674h28.845
			c4.238,0,7.674-3.435,7.674-7.674S406.56,229.418,402.322,229.418z"/>
	</g>
</g>
<g>
	<g>
		<circle cx="294.11" cy="272.37" r="8.399"/>
	</g>
</g>
<g>
	<g>
		<path d="M370.495,264.692h-25.564c-4.238,0-7.674,3.435-7.674,7.674s3.436,7.674,7.674,7.674h25.564
			c4.238,0,7.674-3.435,7.674-7.674S374.733,264.692,370.495,264.692z"/>
	</g>
</g>
<g>
	<g>
		<circle cx="294.11" cy="305.96" r="8.399"/>
	</g>
</g>
<g>
	<g>
		<path d="M417.575,298.288h-72.644c-4.238,0-7.674,3.435-7.674,7.674s3.436,7.674,7.674,7.674h72.644
			c4.238,0,7.674-3.435,7.674-7.674S421.813,298.288,417.575,298.288z"/>
	</g>
</g>
<g>
	<g>
		<path d="M442.151,264.692h-39.829c-4.238,0-7.674,3.435-7.674,7.674s3.436,7.674,7.674,7.674h39.829
			c4.238,0,7.674-3.435,7.674-7.674S446.389,264.692,442.151,264.692z"/>
	</g>
</g>
<g>
	<g>
		<path d="M487.396,165.109h-9.642v-5.448c0-9.97-8.111-18.081-18.082-18.081h-84.928v-10.636c0-9.582-7.168-17.71-16.674-18.908
			l-6.461-0.814c-1.413-4.161-3.103-8.237-5.055-12.192l4.001-5.145c5.889-7.57,5.215-18.394-1.567-25.177L330.94,50.662
			c-6.773-6.775-17.589-7.455-25.161-1.581l-5.168,4.011c-3.917-1.935-7.954-3.611-12.074-5.015l-0.809-6.476
			c-1.189-9.518-9.319-16.695-18.91-16.695h-25.525c-9.58,0-17.709,7.167-18.908,16.674l-0.814,6.461
			c-4.16,1.412-8.233,3.101-12.184,5.051l-5.169-4.012c-7.571-5.873-18.386-5.192-25.16,1.581L163.01,68.709
			c-6.782,6.783-7.456,17.606-1.567,25.177l4.002,5.145c-1.952,3.954-3.643,8.03-5.056,12.192l-6.461,0.814
			c-9.506,1.199-16.674,9.328-16.674,18.908v10.636h-87.75c-9.97,0-18.082,8.111-18.082,18.081v5.448h-6.819
			C11.037,165.109,0,176.147,0,189.714v260.085c0,13.567,11.037,24.604,24.604,24.604h190.524
			c6.232,7.733,15.772,12.693,26.454,12.693h28.037c10.682,0,20.222-4.96,26.454-12.693h191.324
			c13.567,0,24.604-11.038,24.604-24.604V189.714C512,176.147,500.962,165.109,487.396,165.109z M152.603,130.944L152.603,130.944
			c0-1.865,1.395-3.447,3.245-3.68l11.359-1.432c3.057-0.386,5.586-2.561,6.425-5.526c1.799-6.36,4.357-12.53,7.605-18.342
			c1.504-2.692,1.252-6.022-0.641-8.455l-7.038-9.047c-1.146-1.474-1.015-3.58,0.305-4.9l18.049-18.049
			c1.318-1.319,3.425-1.451,4.897-0.308l9.069,7.039c2.434,1.888,5.76,2.139,8.448,0.638c5.805-3.245,11.973-5.801,18.331-7.599
			c2.964-0.838,5.14-3.368,5.525-6.425l1.431-11.358c0.233-1.851,1.816-3.245,3.681-3.245h25.525c1.867,0,3.449,1.397,3.681,3.249
			l1.421,11.374c0.382,3.057,2.554,5.589,5.517,6.431c6.321,1.796,12.456,4.344,18.236,7.573c2.69,1.502,6.015,1.251,8.448-0.638
			l9.068-7.038c1.473-1.143,3.58-1.011,4.898,0.308l18.049,18.048c1.32,1.32,1.451,3.426,0.305,4.9l-7.037,9.047
			c-1.893,2.433-2.146,5.764-0.642,8.454c3.248,5.813,5.806,11.984,7.605,18.343c0.838,2.965,3.368,5.14,6.425,5.526l11.359,1.432
			c1.85,0.233,3.245,1.816,3.245,3.68v10.636h-40.24C318.059,107.683,290.16,80.44,256,80.44c-25.712,0-48.659,15.359-58.458,39.13
			c-1.616,3.918,0.251,8.404,4.169,10.019c3.918,1.616,8.405-0.251,10.02-4.17c7.422-18,24.798-29.631,44.269-29.631
			c25.707,0,46.737,20.375,47.809,45.822c-21.054,0.434-39.383,12.113-49.221,29.271c-10.027-17.487-28.87-29.302-50.433-29.302
			h-51.552V130.944z M215.285,423.779H98.91c-4.238,0-7.674,3.435-7.674,7.674s3.436,7.674,7.674,7.674h108.702v13.997
			c0,2.023,0.188,4.002,0.529,5.928H24.604v0.002c-5.104,0-9.256-4.152-9.256-9.256V189.714c0-5.104,4.152-9.256,9.256-9.256h6.819
			v240.59c0,9.97,8.111,18.081,18.082,18.081H68.78c4.238,0,7.674-3.435,7.674-7.674s-3.436-7.674-7.674-7.674H49.504
			c-1.507,0-2.733-1.226-2.733-2.733V159.661c0-1.507,1.226-2.733,2.733-2.733h154.651c23.577,0,42.759,19.181,42.759,42.758v221.36
			c0,1.507-1.226,2.733-2.733,2.733H215.285z M288.24,453.125c0,10.268-8.354,18.622-18.622,18.622h-28.037
			c-10.268,0-18.622-8.354-18.622-18.622v-13.997h21.222h20.814h23.245V453.125z M487.396,459.055H303.06
			c0.341-1.927,0.529-3.906,0.529-5.928v-13.997h156.084c9.97,0,18.082-8.111,18.082-18.081V228.693
			c0-4.239-3.436-7.674-7.674-7.674c-4.238,0-7.674,3.435-7.674,7.674v192.354c0,1.507-1.226,2.733-2.733,2.733h-163.76h-30.919
			c-1.507,0-2.733-1.226-2.733-2.733v-221.36c0-23.577,19.182-42.758,42.759-42.758h154.651c1.507,0,2.733,1.226,2.733,2.733v38.326
			c0,4.239,3.436,7.674,7.674,7.674c4.238,0,7.674-3.435,7.674-7.674v-17.531h9.642c5.104,0,9.256,4.152,9.256,9.256v260.085h0.001
			C496.652,454.902,492.5,459.055,487.396,459.055z"/>
	</g>
</g>
<g>
</g>
<g>
</g>
<g>
</g>
<g>
</g>
<g>
</g>
<g>
</g>
<g>
</g>
<g>
</g>
<g>
</g>
<g>
</g>
<g>
</g>
<g>
</g>
<g>
</g>
<g>
</g>
<g>
</g>
</svg>
