<?xml version="1.0" encoding="iso-8859-1"?>
<!-- Generator: Adobe Illustrator 19.0.0, SVG Export Plug-In . SVG Version: 6.00 Build 0)  -->
<svg version="1.1" id="Capa_1" xmlns="http://www.w3.org/2000/svg" xmlns:xlink="http://www.w3.org/1999/xlink" x="0px" y="0px"
	 viewBox="0 0 490 490" style="enable-background:new 0 0 490 490;" xml:space="preserve">
<g>
	<path d="M126.253,330.953c0-3.065-0.105-6.729-0.329-10.991l-0.269-5.518l-0.284-5.473h0.449l1.705,5.189l1.72,5.249
		c1.51,4.636,2.721,8.12,3.634,10.438l16.733,42.184h13.04l16.569-42.513c0.837-2.243,2.034-5.727,3.589-10.438l1.645-5.249
		l1.72-5.249h0.434l-0.269,5.578l-0.284,5.638c-0.18,4.157-0.269,7.88-0.269,11.155v41.078h14.296v-75.366h-23.791l-13.249,35.006
		c-1.002,2.542-2.183,5.996-3.544,10.378l-1.66,5.189l-1.6,5.189h-0.493l-1.705-5.189l-1.66-5.249c-1.51-4.531-2.721-8-3.649-10.438
		l-13.473-34.887h-23.298v75.366h14.296V330.953z"/>
	<path d="M227.639,347.686h16.838l3.32-0.06c10.303,0,17.152-1.66,20.531-4.965c3.395-3.32,5.084-10.019,5.084-20.113
		c0-10.154-1.78-17.017-5.323-20.561c-3.559-3.559-10.438-5.323-20.636-5.323h-3.753h-30.371v75.366h14.311V347.686z
		 M227.639,308.702h17.72c6.116,0,9.899,0.763,11.35,2.288c1.451,1.525,2.183,5.473,2.183,11.843c0,5.563-0.882,9.077-2.632,10.572
		c-1.75,1.495-5.862,2.243-12.337,2.243h-16.284V308.702z"/>
	<path d="M311.947,372.689c14.221,0,23.372-1.57,27.47-4.71c4.112-3.155,6.161-10.168,6.161-21.07l-0.224-14.969h-33.182v10.542
		h18.946l-0.06,3.095c0,6.445-1.062,10.527-3.17,12.262c-2.123,1.735-7.088,2.602-14.894,2.602c-8.015,0-13.129-1.032-15.342-3.065
		c-2.213-2.049-3.32-6.804-3.32-14.281l-0.105-9.66l0.06-7.567c0-7.626,1.107-12.456,3.335-14.52s7.477-3.095,15.761-3.095
		c7.626,0,12.382,0.598,14.281,1.794c1.899,1.196,2.976,4.262,3.23,9.197h14.46c0-9.795-1.944-16.12-5.847-18.976
		c-3.903-2.841-12.561-4.277-25.959-4.277c-10.228,0-17.481,0.927-21.758,2.766c-4.262,1.839-7.447,5.413-9.54,10.707
		c-1.705,4.352-2.542,14.759-2.542,31.253c0,12.92,2.108,21.488,6.34,25.675C290.294,370.595,298.923,372.689,311.947,372.689z"/>
	<path d="M77.788,0v265.111H42.189v139.615h0.001l35.59,35.591L77.788,490h370.023V102.422L345.388,0H77.788z M395.793,389.413
		H57.501v-108.99h338.292V389.413z M353.022,36.962l57.816,57.804h-57.816V36.962z"/>
</g>
<g>
</g>
<g>
</g>
<g>
</g>
<g>
</g>
<g>
</g>
<g>
</g>
<g>
</g>
<g>
</g>
<g>
</g>
<g>
</g>
<g>
</g>
<g>
</g>
<g>
</g>
<g>
</g>
<g>
</g>
</svg>
