<?xml version="1.0" encoding="iso-8859-1"?>
<!-- Generator: Adobe Illustrator 19.0.0, SVG Export Plug-In . SVG Version: 6.00 Build 0)  -->
<svg version="1.1" id="Capa_1" xmlns="http://www.w3.org/2000/svg" xmlns:xlink="http://www.w3.org/1999/xlink" x="0px" y="0px"
	 viewBox="0 0 512 512" style="enable-background:new 0 0 512 512;" xml:space="preserve">
<g>
	<g>
		<g>
			<path d="M162.133,170.667c0,51.758,42.108,93.867,93.867,93.867c51.758,0,93.867-42.108,93.867-93.867
				c0-51.758-42.108-93.867-93.867-93.867C204.242,76.8,162.133,118.908,162.133,170.667z M256,93.867
				c42.35,0,76.8,34.454,76.8,76.8s-34.45,76.8-76.8,76.8c-42.35,0-76.8-34.454-76.8-76.8S213.65,93.867,256,93.867z"/>
			<path d="M390.108,238.933h-48.775c-3.233,0-6.183,1.825-7.633,4.717l-37.357,74.716l-33.676-42.095
				c-3.25-4.05-10.083-4.05-13.333,0l-33.676,42.095L178.3,243.65c-1.45-2.892-4.4-4.717-7.633-4.717h-48.775
				c-7.383,0-14.4,3.188-19.267,8.742c-4.858,5.554-7.083,12.929-6.108,20.242L126.1,489.783C127.792,502.45,138.7,512,151.475,512
				h209.05c12.775,0,23.683-9.55,25.375-22.217l29.583-221.871c0.975-7.317-1.258-14.696-6.125-20.246
				C404.5,242.117,397.483,238.933,390.108,238.933z M256,295.258l31.935,39.923L256,399.054l-31.935-63.873L256,295.258z
				 M398.567,265.658l-29.583,221.867c-0.567,4.221-4.2,7.408-8.458,7.408h-209.05c-4.258,0-7.892-3.188-8.458-7.408
				l-29.583-221.867c-0.333-2.471,0.392-4.867,2.033-6.742c1.65-1.883,3.933-2.917,6.425-2.917h43.5l82.975,165.95
				c2.9,5.783,12.367,5.783,15.267,0L346.608,256h43.5c2.492,0,4.767,1.033,6.417,2.908
				C398.167,260.792,398.892,263.187,398.567,265.658z"/>
			<path d="M503.467,162.133h-31.083c-1.825-5.596-4.083-11.046-6.75-16.3l22.017-21.942c1.6-1.6,2.508-3.775,2.508-6.038
				c0-2.267-0.9-4.442-2.5-6.042l-36.267-36.267c-1.6-1.6-3.767-2.5-6.033-2.5h-0.008c-2.267,0-4.433,0.904-6.033,2.508
				l-21.95,22.013c-5.242-2.662-10.692-4.917-16.3-6.746V59.733c0-4.713-3.817-8.533-8.533-8.533h-51.2
				c-4.717,0-8.533,3.821-8.533,8.533v27.392c0,4.713,3.817,8.533,8.533,8.533c4.717,0,8.533-3.821,8.533-8.533V68.267H384v28.929
				c0,3.875,2.608,7.262,6.358,8.25c8.517,2.246,16.675,5.625,24.242,10.042c3.35,1.954,7.608,1.413,10.342-1.346l20.425-20.487
				l24.183,24.183l-20.492,20.417c-2.75,2.742-3.3,6.992-1.35,10.342c4.433,7.596,7.808,15.754,10.05,24.246
				c0.983,3.746,4.375,6.358,8.25,6.358h28.925v34.133h-28.925c-3.875,0-7.267,2.612-8.25,6.358
				c-2.242,8.492-5.617,16.65-10.05,24.246c-1.95,3.35-1.4,7.6,1.35,10.342l20.492,20.417l-30.225,30.225
				c-3.333,3.333-3.333,8.733,0,12.067c1.667,1.667,3.85,2.5,6.033,2.5s4.367-0.833,6.033-2.5l36.267-36.267
				c1.6-1.6,2.5-3.775,2.5-6.042c0-2.263-0.908-4.438-2.508-6.037L465.633,246.7c2.667-5.254,4.925-10.704,6.75-16.3h31.083
				c4.717,0,8.533-3.821,8.533-8.533v-51.2C512,165.954,508.183,162.133,503.467,162.133z"/>
			<path d="M371,128.183c-4.392-0.279-8.733,3.329-9,8.033c-0.275,4.704,3.325,8.738,8.033,9.008
				c26.967,1.542,48.1,23.963,48.1,51.042c0,6.729-1.308,13.333-3.892,19.638c-1.783,4.362,0.308,9.346,4.667,11.129
				c1.058,0.433,2.15,0.642,3.233,0.642c3.358,0,6.542-2,7.9-5.304c3.425-8.367,5.158-17.146,5.158-26.104
				C435.2,160.15,407,130.246,371,128.183z"/>
			<path d="M42.45,223.496l20.492-20.417c2.75-2.742,3.3-6.992,1.35-10.342c-4.433-7.596-7.808-15.754-10.05-24.246
				c-0.983-3.746-4.375-6.358-8.25-6.358H17.067V128h28.925c3.875,0,7.267-2.612,8.25-6.358c2.242-8.492,5.617-16.65,10.05-24.246
				c1.95-3.35,1.4-7.6-1.35-10.342L42.45,66.638l24.183-24.183l20.425,20.488c2.733,2.75,6.992,3.3,10.342,1.346
				c7.567-4.417,15.725-7.792,24.242-10.042c3.75-0.987,6.358-4.375,6.358-8.25V17.067h34.133v28.929
				c0,3.875,2.608,7.262,6.358,8.25c8.517,2.25,16.675,5.625,24.242,10.042c3.35,1.954,7.6,1.404,10.342-1.346L223.5,42.454
				l15.292,15.292c3.333,3.333,8.733,3.333,12.067,0c3.333-3.333,3.333-8.733,0-12.067l-21.333-21.333c-1.6-1.6-3.767-2.5-6.033-2.5
				h-0.008c-2.267,0-4.433,0.904-6.033,2.508L195.5,46.367c-5.242-2.663-10.692-4.917-16.3-6.746V8.533
				c0-4.713-3.817-8.533-8.533-8.533h-51.2c-4.717,0-8.533,3.821-8.533,8.533v31.083c-5.608,1.833-11.058,4.087-16.3,6.75
				l-21.95-22.013c-1.6-1.604-3.767-2.508-6.033-2.508c-0.008,0-0.008,0-0.008,0c-2.267,0-4.433,0.9-6.033,2.5L24.342,60.612
				c-1.6,1.6-2.5,3.775-2.5,6.042c0,2.263,0.908,4.438,2.508,6.038l22.017,21.942c-2.667,5.254-4.925,10.704-6.75,16.3H8.533
				c-4.717,0-8.533,3.821-8.533,8.533v51.2c0,4.713,3.817,8.533,8.533,8.533h31.083c1.825,5.596,4.083,11.046,6.75,16.3
				L24.35,217.442c-1.6,1.6-2.508,3.775-2.508,6.037c0,2.267,0.9,4.442,2.5,6.042l32.6,32.596c1.667,1.667,3.85,2.5,6.033,2.5
				s4.367-0.833,6.033-2.5c3.333-3.333,3.333-8.738,0-12.067L42.45,223.496z"/>
			<path d="M141,213.15c0.158,0.008,0.325,0.012,0.492,0.012c4.492,0,8.25-3.508,8.508-8.046c0.275-4.704-3.325-8.738-8.033-9.008
				c-26.967-1.542-48.1-23.963-48.1-51.042c0-28.233,22.967-51.2,51.2-51.2c6.842,0,13.45,1.325,19.642,3.938
				c4.325,1.842,9.35-0.204,11.183-4.546c1.825-4.342-0.208-9.346-4.55-11.179c-8.308-3.504-17.15-5.279-26.275-5.279
				c-37.642,0-68.267,30.625-68.267,68.267C76.8,181.183,105,211.088,141,213.15z"/>
		</g>
	</g>
</g>
<g>
</g>
<g>
</g>
<g>
</g>
<g>
</g>
<g>
</g>
<g>
</g>
<g>
</g>
<g>
</g>
<g>
</g>
<g>
</g>
<g>
</g>
<g>
</g>
<g>
</g>
<g>
</g>
<g>
</g>
</svg>
