<svg height="512pt" viewBox="0 0 512 512.0005" width="512pt" xmlns="http://www.w3.org/2000/svg"><path d="m139.957031 267.097656c-15.484375-17.371094-41.609375-19.304687-59.472656-4.390625-2.332031 1.945313-4.398437 4.101563-6.207031 6.414063-.042969-.996094-.070313-1.992188-.070313-2.988282v-134.394531c0-20.457031-16.644531-37.101562-37.101562-37.101562-20.460938-.003907-37.105469 16.644531-37.105469 37.101562v125.039063c0 40.917968 11.417969 80.914062 33.011719 115.667968l58.828125 94.65625v34.898438c0 5.523438 4.476562 10 10 10 5.519531 0 10-4.476562 10-10v-37.75c0-1.867188-.523438-3.695312-1.507813-5.28125l-60.332031-97.082031c-19.625-31.582031-30-67.925781-30-105.109375v-125.039063c0-9.429687 7.671875-17.101562 17.105469-17.101562 9.429687 0 17.101562 7.671875 17.101562 17.101562v134.394531c0 19.832032 6.800781 39.304688 19.144531 54.828126.0625.078124.132813.148437.199219.222656.285157.390625.570313.777344.875 1.160156l59.183594 74.246094c3.441406 4.320312 9.734375 5.027344 14.050781 1.585937 4.320313-3.441406 5.03125-9.730469 1.589844-14.050781l-59.183594-74.246094c-7.6875-9.644531-6.234375-23.917968 3.230469-31.816406 9.53125-7.953125 23.46875-6.925781 31.726563 2.34375l56.601562 63.511719c17.007812 19.085937 26.375 43.679687 26.375 69.246093v48.835938c0 5.523438 4.476562 10 10 10s10-4.476562 10-10v-48.835938c0-30.480468-11.167969-59.796874-31.445312-82.554687zm0 0"/><path d="m218 492c-2.628906 0-5.210938 1.070312-7.070312 2.929688-1.859376 1.859374-2.929688 4.441406-2.929688 7.070312s1.070312 5.210938 2.929688 7.070312c1.859374 1.859376 4.441406 2.929688 7.070312 2.929688s5.210938-1.070312 7.070312-2.929688c1.859376-1.859374 2.929688-4.441406 2.929688-7.070312s-1.070312-5.210938-2.929688-7.070312c-1.859374-1.859376-4.441406-2.929688-7.070312-2.929688zm0 0"/><path d="m474.894531 94.632812c-20.457031 0-37.101562 16.648438-37.101562 37.105469v134.394531c0 .996094-.027344 1.992188-.070313 2.988282-1.808594-2.3125-3.871094-4.46875-6.203125-6.414063-17.867187-14.910156-43.992187-12.984375-59.472656 4.390625l-56.601563 63.515625c-20.277343 22.753907-31.445312 52.070313-31.445312 82.550781v88.835938c0 5.523438 4.476562 10 10 10s10-4.476562 10-10v-88.835938c0-25.566406 9.367188-50.160156 26.378906-69.246093l56.597656-63.511719c8.257813-9.269531 22.195313-10.300781 31.726563-2.347656 9.46875 7.902344 10.917969 22.175781 3.230469 31.816406l-59.179688 74.246094c-3.441406 4.320312-2.734375 10.613281 1.585938 14.054687 4.320312 3.445313 10.609375 2.730469 14.054687-1.585937l59.179688-74.25c.304687-.378906.585937-.765625.871093-1.152344.066407-.078125.140626-.148438.203126-.230469 12.347656-15.523437 19.144531-34.992187 19.144531-54.824219v-134.394531c0-9.429687 7.671875-17.101562 17.105469-17.101562 9.429687 0 17.101562 7.671875 17.101562 17.101562v125.039063c0 37.183594-10.371094 73.527344-30 105.109375l-60.328125 97.082031c-.984375 1.585938-1.507813 3.414062-1.507813 5.28125v37.75c0 5.523438 4.476563 10 10 10 5.523438 0 10-4.476562 10-10v-34.898438l58.824219-94.65625c21.597657-34.753906 33.011719-74.75 33.011719-115.667968v-125.039063c0-20.457031-16.644531-37.105469-37.105469-37.105469zm0 0"/><path d="m393.480469 220v-25c0-5.523438-4.476563-10-10-10-5.523438 0-10 4.476562-10 10v19.082031l-107.480469 59.019531v-117.183593l21.101562-11.585938v26.902344c0 3.527344 1.863282 6.796875 4.898438 8.597656 1.570312.933594 3.335938 1.402344 5.101562 1.402344 1.648438 0 3.296876-.410156 4.792969-1.226563l46.644531-25.46875c3.210938-1.753906 5.207032-5.121093 5.207032-8.777343v-38.023438l19.734375-10.835937v18.097656c0 5.523438 4.476562 10 10 10 5.523437 0 10-4.476562 10-10v-35c0-3.648438-1.988281-7.007812-5.1875-8.765625l-127.480469-70c-2.996094-1.644531-6.628906-1.644531-9.625 0l-127.476562 70c-3.199219 1.757813-5.1875 5.117187-5.1875 8.765625v140c0 3.648438 1.988281 7.007812 5.1875 8.765625l127.476562 70c1.5.824219 3.15625 1.234375 4.8125 1.234375 1.660156 0 3.316406-.410156 4.8125-1.234375l127.480469-70c3.199219-1.757813 5.1875-5.113281 5.1875-8.765625zm-223.902344-151.136719 106.707031 58.59375-20.285156 11.136719-106.703125-58.59375zm46.683594-25.632812 106.707031 58.589843-25.910156 14.226563-106.703125-58.589844zm90.839843 111.148437v-21.03125l26.644532-14.628906v21.109375zm-51.101562-132.96875 106.703125 58.589844-18.957031 10.410156-106.707032-58.589844zm-117.480469 75.492188 107.480469 59.015625v117.183593l-107.480469-59.019531zm0 0"/><path d="m383.480469 145c-2.628907 0-5.210938 1.070312-7.070313 2.929688-1.859375 1.859374-2.929687 4.441406-2.929687 7.070312s1.070312 5.210938 2.929687 7.070312c1.859375 1.859376 4.441406 2.929688 7.070313 2.929688 2.628906 0 5.210937-1.070312 7.070312-2.929688 1.859375-1.859374 2.929688-4.441406 2.929688-7.070312s-1.070313-5.210938-2.929688-7.070312c-1.859375-1.859376-4.441406-2.929688-7.070312-2.929688zm0 0"/></svg>