<?xml version="1.0" encoding="iso-8859-1"?>
<!-- Generator: Adobe Illustrator 19.0.0, SVG Export Plug-In . SVG Version: 6.00 Build 0)  -->
<svg version="1.1" id="Layer_1" xmlns="http://www.w3.org/2000/svg" xmlns:xlink="http://www.w3.org/1999/xlink" x="0px" y="0px"
	 viewBox="0 0 481.867 481.867" style="enable-background:new 0 0 481.867 481.867;" xml:space="preserve">
<g>
	<g>
		<path d="M423.807,177.077c-19.878,0-36.066,16.112-36.066,35.99c0,17.242,12.198,31.699,28.386,35.238
			c-0.753,27.708-7.304,133.647-60.988,162.56v-21.158c0-10.316-8.282-18.598-18.598-18.598h-61.139v-19.356
			c-24.512,10.778-50.37,16.283-76.918,16.283c-26.572,0-52.454-5.513-76.983-16.304v19.377H60.362
			c-10.24,0-18.522,8.282-18.522,18.598v73.563c0,10.239,8.282,18.597,18.522,18.597h276.179c10.315,0,18.598-8.358,18.598-18.597
			v-35.765c68.367-28.01,75.445-148.706,76.122-179.201c16.339-3.387,28.612-17.92,28.612-35.238
			C459.873,193.19,443.685,177.077,423.807,177.077z"/>
	</g>
</g>
<g>
	<g>
		<path d="M198.484,0C101.168,0,21.995,79.176,21.995,176.492c0,69.125,40.809,132.235,103.963,160.779
			c23.074,10.419,47.474,15.706,72.526,15.706c25.055,0,49.455-5.287,72.529-15.706c63.154-28.544,103.963-91.654,103.963-160.779
			C374.976,79.176,295.8,0,198.484,0z M198.484,234.735c-32.115,0-58.243-26.125-58.243-58.243
			c0-32.117,26.129-58.242,58.243-58.242c32.114,0,58.242,26.125,58.242,58.242C256.726,208.61,230.598,234.735,198.484,234.735z
			 M317.69,176.492c0-65.728-53.478-119.198-119.206-119.198V42.235c74.037,0,134.264,60.228,134.264,134.257H317.69z"/>
	</g>
</g>
<g>
	<g>
		<circle cx="198.483" cy="176.489" r="43.181"/>
	</g>
</g>
<g>
</g>
<g>
</g>
<g>
</g>
<g>
</g>
<g>
</g>
<g>
</g>
<g>
</g>
<g>
</g>
<g>
</g>
<g>
</g>
<g>
</g>
<g>
</g>
<g>
</g>
<g>
</g>
<g>
</g>
</svg>
