<?xml version="1.0" encoding="iso-8859-1"?>
<!-- Generator: Adobe Illustrator 16.0.0, SVG Export Plug-In . SVG Version: 6.00 Build 0)  -->
<!DOCTYPE svg PUBLIC "-//W3C//DTD SVG 1.1//EN" "http://www.w3.org/Graphics/SVG/1.1/DTD/svg11.dtd">
<svg xmlns="http://www.w3.org/2000/svg" xmlns:xlink="http://www.w3.org/1999/xlink" version="1.1" id="Capa_1" x="0px" y="0px" width="512px" height="512px" viewBox="0 0 371.081 371.082" style="enable-background:new 0 0 371.081 371.082;" xml:space="preserve">
<g>
	<g>
		<path
d="M274.85,278.396c22.234-23.951,5.325-44.738,2.199-49.115c3.609-8.378,3.902-15.962,0.891-22.587
c-1.171-2.585-2.868-4.995-5.021-7.148c-3.621-3.62-7.871-5.886-10.942-7.184c2.358-8.145,1.754-15.262-1.789-21.178
c-0.972-1.628-2.194-3.151-3.589-4.578c-9.479-9.699-16.645-7.21-16.645-7.21s3.872-15.466-7.336-26.43
c-11.21-10.964-21.867-6.279-31.115,3.119l-46.61,46.589c-6.583-2.472-16.944-8.701-27.614-7.477
c-19.007,2.183-23.959,14.89-26.64,25.528c-6.066,24.031-4.261,59.861-11.126,73.705c-8.443,17.023-24.977,31.318-24.977,31.318
l64.83,64.83c26.394-26.396,51.79-33.232,70.739-41.16C243.049,311.456,264.127,289.948,274.85,278.396z" />
		<g>
			<path d="M69.991,90.751c-6.29-12.114-6.038-24.282,0.809-36.974c2.013,0.029,3.998-0.472,5.753-1.589     c5.313-3.384,6.512-11.035,2.676-17.058c-3.837-6.024-11.276-8.17-16.588-4.788c-4,2.546-5.665,7.515-4.606,12.387     c-7.267,12.056-10.242,24.268-8.822,36.4c1.471,12.586,7.659,24.849,18.39,36.449c19.204,20.763,49.034,34.932,65.104,41.53     c6.564,2.696,13.235,5.124,19.494,7.12l13.354-13.349c-9.178-2.425-23.307-7.15-39.118-14.674     C98.306,122.82,78.259,106.679,69.991,90.751z" />
			<path d="M182.907,42.141c-5.973-14.63-14.469-25.422-25.252-32.078c-10.395-6.417-22.717-8.885-36.717-7.397     c-3.965-3.019-9.173-3.612-13.173-1.065c-5.312,3.383-6.512,11.035-2.677,17.058c3.836,6.023,11.278,8.17,16.59,4.787     c1.754-1.117,3.047-2.704,3.872-4.54c14.396-0.837,25.532,4.08,33.85,14.902c10.937,14.227,17.087,39.218,17.321,70.37     c0.118,15.479-1.192,28.848-2.661,38.199l18.654-18.524c0.114-1.713,0.218-3.432,0.299-5.154     C193.829,101.347,193.603,68.324,182.907,42.141z" />
		</g>
		<path d="M317.825,328.036c-8.307-13.043-25.614-16.883-38.657-8.575c-1.247,0.793-2.409,1.672-3.484,2.619    c-6.388-3.349-12.298-6.986-17.745-10.901c-4.826,3.783-10.198,7.62-16.205,11.445c7.474,5.902,15.754,11.274,24.826,16.081    c-1.031,6.513,0.212,13.414,4.033,19.414c8.308,13.043,25.615,16.883,38.659,8.576    C322.294,358.386,326.134,341.079,317.825,328.036z" />
	</g>
</g>
<g>
</g>
<g>
</g>
<g>
</g>
<g>
</g>
<g>
</g>
<g>
</g>
<g>
</g>
<g>
</g>
<g>
</g>
<g>
</g>
<g>
</g>
<g>
</g>
<g>
</g>
<g>
</g>
<g>
</g>
</svg>
