<?xml version="1.0" encoding="iso-8859-1"?>
<!-- Generator: Adobe Illustrator 19.0.0, SVG Export Plug-In . SVG Version: 6.00 Build 0)  -->
<svg xmlns="http://www.w3.org/2000/svg" xmlns:xlink="http://www.w3.org/1999/xlink" version="1.1" id="Layer_1" x="0px" y="0px" viewBox="0 0 512 512" style="enable-background:new 0 0 512 512;" xml:space="preserve" width="512" height="512">
<g>
	<rect x="241" y="241" width="150" height="150"/>
	<rect x="121" y="301" width="90" height="90"/>
	<rect x="271" y="30" width="120" height="91"/>
	<rect x="121" width="120" height="121"/>
	<path d="M452,0v151H60c0-46.787,0-96.843,0-151H0v512h60c0-10.314,0-19.982,0-30h392c0,7.826,0,17.688,0,30h60V0H452z M60,211h392   c0,104.344,0,169.845,0,210H60C60,348.699,60,281.437,60,211z"/>
</g>















</svg>
