<?xml version="1.0" encoding="iso-8859-1"?>
<!-- Generator: Adobe Illustrator 19.0.0, SVG Export Plug-In . SVG Version: 6.00 Build 0)  -->
<svg xmlns="http://www.w3.org/2000/svg" xmlns:xlink="http://www.w3.org/1999/xlink" version="1.1" id="Layer_1" x="0px" y="0px" viewBox="0 0 512 512" style="enable-background:new 0 0 512 512;" xml:space="preserve" width="512px" height="512px">
<g>
	<g>
		<g>
			<path d="M34.068,224.392l51.075-7.841l0.968-5.942c1.833-11.231,4.792-22.3,8.796-32.904l2.13-5.629l-40.292-32.31l14.111-24.451     l48.148,18.752l3.812-4.652c7.199-8.783,15.304-16.886,24.087-24.095l4.646-3.809l-18.742-48.143l24.445-14.116l32.31,40.287     l5.629-2.122c10.606-4.009,21.675-6.966,32.904-8.796l5.942-0.97l7.841-51.077h28.232l7.839,51.08l5.942,0.968     c11.22,1.833,22.295,4.79,32.909,8.796l5.627,2.122l32.302-40.289l24.451,14.118l-18.742,48.141l4.646,3.809     c8.783,7.206,16.888,15.314,24.087,24.095l3.812,4.651l48.146-18.749l14.116,24.451l-40.292,32.31l2.13,5.629     c4.009,10.606,6.966,21.676,8.794,32.899l0.968,5.947l51.077,7.839v14.116h16.576v-28.342l-53.33-8.187     c-1.626-8.282-3.812-16.461-6.533-24.435l42.081-33.748L448.379,94.71l-50.294,19.579c-5.548-6.341-11.528-12.326-17.874-17.876     l19.576-50.289l-49.085-28.342l-33.743,42.081c-7.979-2.716-16.161-4.902-24.44-6.528L284.331,0h-56.676l-8.189,53.338     c-8.282,1.623-16.461,3.812-24.435,6.528l-33.748-42.081l-49.078,28.347l19.574,50.284c-6.346,5.55-12.326,11.535-17.874,17.876     L63.611,94.712l-28.337,49.083l42.081,33.749c-2.721,7.972-4.908,16.151-6.533,24.435l-53.332,8.189v28.334h16.579V224.392z" fill="#FFFFFF"/>
			<path d="M192.474,238.505h16.576c0-25.884,21.059-46.943,46.943-46.943s46.945,21.059,46.945,46.943h16.579     c0-35.026-28.498-63.519-63.524-63.519C220.966,174.986,192.474,203.479,192.474,238.505z" fill="#FFFFFF"/>
			<path d="M346.696,238.505h16.576c0-59.151-48.128-107.274-107.277-107.274c-59.151,0-107.277,48.123-107.277,107.274h16.576     c0-50.012,40.683-90.698,90.698-90.698C306.007,147.807,346.696,188.493,346.696,238.505z" fill="#FFFFFF"/>
			<rect x="430.664" y="285.466" width="63.844" height="16.576" fill="#FFFFFF"/>
			<path d="M380.004,324.145c16.755,0,30.39-13.635,30.39-30.39c0-16.755-13.635-30.387-30.39-30.387     c-13.881,0-25.61,9.36-29.228,22.098H17.49v16.576h333.285C354.392,314.781,366.121,324.145,380.004,324.145z M380.004,279.944     c7.616,0,13.814,6.198,13.814,13.814c0,7.616-6.198,13.814-13.814,13.814c-7.616,0-13.814-6.198-13.814-13.814     C366.19,286.141,372.388,279.944,380.004,279.944z" fill="#FFFFFF"/>
			<rect x="321.377" y="348.083" width="173.107" height="16.576" fill="#FFFFFF"/>
			<path d="M270.73,386.762c16.755,0,30.387-13.632,30.387-30.387c0-16.758-13.632-30.39-30.387-30.39     c-13.881,0-25.611,9.36-29.23,22.098H17.49v16.576h224.008C245.115,377.399,256.847,386.762,270.73,386.762z M270.73,342.561     c7.613,0,13.814,6.198,13.814,13.814c0,7.616-6.198,13.814-13.814,13.814c-7.55,0-13.694-6.092-13.804-13.611v-0.405     C257.037,348.653,263.18,342.561,270.73,342.561z" fill="#FFFFFF"/>
			<rect x="143.969" y="410.701" width="350.541" height="16.576" fill="#FFFFFF"/>
			<path d="M93.312,449.382c16.755,0,30.39-13.635,30.39-30.39s-13.635-30.387-30.39-30.387c-13.88,0-25.611,9.359-29.23,22.095     H17.49v16.576h46.59C67.697,440.018,79.429,449.382,93.312,449.382z M93.312,405.179c7.613,0,13.814,6.198,13.814,13.814     s-6.198,13.814-13.814,13.814c-7.616,0-13.814-6.198-13.814-13.814S85.696,405.179,93.312,405.179z" fill="#FFFFFF"/>
			<rect x="283.924" y="473.318" width="210.56" height="16.576" fill="#FFFFFF"/>
			<path d="M233.277,451.223c-13.88,0-25.608,9.358-29.227,22.095H17.49v16.576h186.557C207.662,502.636,219.393,512,233.277,512     c16.758,0,30.39-13.632,30.39-30.387C263.667,464.855,250.033,451.223,233.277,451.223z M233.277,495.424     c-7.616,0-13.814-6.2-13.814-13.814c0-7.613,6.198-13.814,13.814-13.814c7.616,0,13.814,6.198,13.814,13.814     S240.893,495.424,233.277,495.424z" fill="#FFFFFF"/>
		</g>
	</g>
</g>
<g>
</g>
<g>
</g>
<g>
</g>
<g>
</g>
<g>
</g>
<g>
</g>
<g>
</g>
<g>
</g>
<g>
</g>
<g>
</g>
<g>
</g>
<g>
</g>
<g>
</g>
<g>
</g>
<g>
</g>
</svg>
