<?xml version="1.0" encoding="iso-8859-1"?>
<!-- Generator: Adobe Illustrator 19.0.0, SVG Export Plug-In . SVG Version: 6.00 Build 0)  -->
<svg version="1.1" id="Capa_1" xmlns="http://www.w3.org/2000/svg" xmlns:xlink="http://www.w3.org/1999/xlink" x="0px" y="0px"
	 viewBox="0 0 512 512" style="enable-background:new 0 0 512 512;" xml:space="preserve">
<g>
	<g>
		<g>
			<path d="M503.467,452.267H435.2v-85.333h-34.133v85.333H110.933v-85.333H76.8v85.333H8.533C3.82,452.267,0,456.087,0,460.8
				s3.82,8.533,8.533,8.533h494.933c4.713,0,8.533-3.821,8.533-8.533S508.18,452.267,503.467,452.267z"/>
			<rect x="264.533" y="230.4" width="25.6" height="17.067"/>
			<path d="M273.067,51.2c-0.014-4.707-3.826-8.519-8.533-8.533h-204.8c-4.707,0.014-8.519,3.826-8.533,8.533v162.133h221.867V51.2z
				 M179.2,68.267h68.267c4.713,0,8.533,3.82,8.533,8.533s-3.82,8.533-8.533,8.533H179.2c-4.713,0-8.533-3.82-8.533-8.533
				S174.487,68.267,179.2,68.267z M179.2,102.4h68.267c4.713,0,8.533,3.821,8.533,8.533s-3.82,8.533-8.533,8.533H179.2
				c-4.713,0-8.533-3.82-8.533-8.533S174.487,102.4,179.2,102.4z M136.533,128H76.8c-4.707-0.014-8.519-3.826-8.533-8.533v-51.2
				c0.014-4.707,3.826-8.519,8.533-8.533h59.733c4.707,0.014,8.519,3.826,8.533,8.533v51.2
				C145.053,124.174,141.24,127.986,136.533,128z M193.792,168.192c-3.365,3.3-8.752,3.3-12.117,0l-2.475-2.56v22.101
				c0,4.713-3.82,8.533-8.533,8.533s-8.533-3.82-8.533-8.533v-22.101l-2.475,2.56c-3.35,3.323-8.756,3.312-12.093-0.025
				s-3.348-8.743-0.025-12.093l17.067-17.067c0.744-0.696,1.613-1.246,2.56-1.621c0.261-0.164,0.551-0.28,0.853-0.341
				c0.69-0.232,1.407-0.376,2.133-0.427h0.853c0.906,0.004,1.803,0.178,2.645,0.512c0.094-0.012,0.188,0.02,0.256,0.085
				c0.958,0.355,1.83,0.907,2.56,1.621c0.085,0.085,0.171,0.085,0.256,0.171l17.067,17.067
				C197.12,159.428,197.12,164.838,193.792,168.192z M253.525,168.192c-3.365,3.3-8.752,3.3-12.117,0l-2.475-2.56v22.101
				c0,4.713-3.82,8.533-8.533,8.533s-8.533-3.82-8.533-8.533v-22.101l-2.475,2.56c-3.35,3.323-8.756,3.312-12.093-0.025
				s-3.348-8.743-0.025-12.093l17.067-17.067c0.744-0.696,1.613-1.246,2.56-1.621c0.261-0.164,0.551-0.28,0.853-0.341
				c0.69-0.232,1.407-0.376,2.133-0.427h0.853c0.906,0.004,1.803,0.178,2.645,0.512c0.094-0.012,0.188,0.02,0.256,0.085
				c0.958,0.355,1.83,0.907,2.56,1.621c0.085,0.085,0.171,0.085,0.256,0.171l17.067,17.067
				C256.853,159.428,256.853,164.838,253.525,168.192z"/>
			<rect x="221.867" y="230.4" width="25.6" height="17.067"/>
			<rect x="93.867" y="230.4" width="25.6" height="17.067"/>
			<rect x="136.533" y="230.4" width="25.6" height="17.067"/>
			<rect x="179.2" y="230.4" width="25.6" height="17.067"/>
			<rect x="349.867" y="230.4" width="25.6" height="17.067"/>
			<rect x="435.2" y="230.4" width="25.6" height="17.067"/>
			<rect x="392.533" y="230.4" width="25.6" height="17.067"/>
			<path d="M460.8,85.333H290.133v128H460.8V85.333z M366.933,196.267h-51.2c-4.713,0-8.533-3.82-8.533-8.533
				s3.82-8.533,8.533-8.533h51.2c4.713,0,8.533,3.82,8.533,8.533S371.646,196.267,366.933,196.267z M375.467,153.6
				c-0.014,4.707-3.826,8.519-8.533,8.533h-51.2c-4.707-0.014-8.519-3.826-8.533-8.533v-42.667c0.014-4.707,3.826-8.519,8.533-8.533
				h51.2c4.707,0.014,8.519,3.826,8.533,8.533V153.6z"/>
			<rect x="51.2" y="230.4" width="25.6" height="17.067"/>
			<rect x="85.333" y="76.8" width="42.667" height="34.133"/>
			<rect x="307.2" y="230.4" width="25.6" height="17.067"/>
			<rect x="324.267" y="119.467" width="34.133" height="25.6"/>
			<circle cx="170.667" cy="307.2" r="8.533"/>
			<circle cx="85.333" cy="307.2" r="8.533"/>
			<circle cx="341.333" cy="307.2" r="8.533"/>
			<circle cx="256" cy="307.2" r="8.533"/>
			<path d="M68.267,349.867h375.467c14.121-0.041,25.559-11.479,25.6-25.6v-59.733H42.667v59.733
				C42.708,338.388,54.145,349.825,68.267,349.867z M426.667,281.6c14.138,0,25.6,11.462,25.6,25.6s-11.461,25.6-25.6,25.6
				s-25.6-11.461-25.6-25.6C401.108,293.079,412.545,281.641,426.667,281.6z M376.15,286.888c0.433-1.033,1.039-1.984,1.792-2.813
				l1.275-1.025c0.477-0.324,0.996-0.583,1.542-0.771c0.483-0.245,0.999-0.417,1.533-0.508c1.124-0.258,2.292-0.258,3.417,0
				c0.533,0.093,1.05,0.264,1.533,0.508c0.543,0.188,1.059,0.447,1.533,0.771c0.425,0.341,0.858,0.683,1.283,1.025
				c0.753,0.829,1.359,1.78,1.792,2.813c0.438,1.027,0.67,2.13,0.683,3.246c-0.013,0.572-0.071,1.142-0.175,1.704
				c-0.089,0.536-0.261,1.054-0.508,1.537c-0.188,0.544-0.445,1.06-0.767,1.538c-0.341,0.425-0.683,0.85-1.025,1.279
				c-3.365,3.3-8.752,3.3-12.117,0c-1.574-1.625-2.461-3.795-2.475-6.058C375.48,289.017,375.712,287.914,376.15,286.888z
				 M377.941,318.208c2.441-2.462,6.129-3.201,9.331-1.872s5.281,4.464,5.261,7.931c-0.014,1.115-0.246,2.216-0.683,3.242
				c-0.433,1.034-1.039,1.987-1.792,2.817c-0.425,0.341-0.858,0.683-1.283,1.021c-0.474,0.324-0.99,0.583-1.533,0.771
				c-0.484,0.244-1,0.416-1.533,0.512c-0.565,0.098-1.135,0.155-1.708,0.171c-0.573-0.02-1.143-0.077-1.708-0.171
				c-0.533-0.095-1.05-0.268-1.533-0.513c-0.546-0.187-1.064-0.447-1.542-0.771c-0.425-0.338-0.85-0.679-1.275-1.021
				c-0.771-0.816-1.379-1.772-1.792-2.817c-0.437-1.026-0.669-2.127-0.683-3.242C375.496,322.007,376.38,319.842,377.941,318.208z
				 M341.333,281.6c14.138,0,25.6,11.462,25.6,25.6s-11.462,25.6-25.6,25.6c-14.138,0-25.6-11.461-25.6-25.6
				C315.775,293.079,327.212,281.641,341.333,281.6z M290.817,286.888c0.433-1.033,1.039-1.984,1.792-2.813
				c3.421-3.158,8.695-3.158,12.117,0c0.753,0.829,1.359,1.78,1.792,2.813c0.911,2.067,0.911,4.421,0,6.487
				c-0.433,1.034-1.039,1.987-1.792,2.817c-3.365,3.3-8.752,3.3-12.117,0c-0.753-0.83-1.359-1.783-1.792-2.817
				C289.906,291.308,289.906,288.954,290.817,286.888z M292.608,318.208c2.896-2.953,7.476-3.444,10.932-1.171
				c3.456,2.272,4.82,6.672,3.256,10.501s-5.618,6.015-9.677,5.219c-4.058-0.797-6.985-4.354-6.986-8.49
				C290.162,322.007,291.046,319.842,292.608,318.208z M256,281.6c14.138,0,25.6,11.462,25.6,25.6s-11.462,25.6-25.6,25.6
				s-25.6-11.461-25.6-25.6C230.441,293.079,241.879,281.641,256,281.6z M205.483,286.888c0.433-1.033,1.039-1.984,1.792-2.813
				c3.421-3.158,8.695-3.158,12.117,0c0.753,0.829,1.359,1.78,1.792,2.813c0.438,1.027,0.67,2.13,0.683,3.246
				c0,4.713-3.821,8.533-8.533,8.533c-4.713,0-8.533-3.82-8.533-8.533C204.813,289.017,205.045,287.914,205.483,286.888z
				 M207.275,318.208c2.896-2.953,7.476-3.444,10.932-1.171c3.456,2.272,4.82,6.672,3.256,10.501
				c-1.564,3.829-5.618,6.015-9.677,5.219s-6.985-4.354-6.986-8.49C204.829,322.007,205.713,319.842,207.275,318.208z
				 M170.667,281.6c14.138,0,25.6,11.462,25.6,25.6s-11.461,25.6-25.6,25.6s-25.6-11.461-25.6-25.6
				C145.108,293.079,156.545,281.641,170.667,281.6z M121.941,284.075L121.941,284.075l1.275-1.026
				c0.477-0.324,0.996-0.583,1.542-0.771c0.483-0.245,1-0.417,1.534-0.508c1.093-0.258,2.232-0.258,3.325,0
				c0.566,0.079,1.115,0.25,1.625,0.508c0.543,0.188,1.059,0.447,1.533,0.771c0.425,0.341,0.858,0.683,1.283,1.025
				c3.3,3.365,3.3,8.752,0,12.117c-0.425,0.341-0.858,0.683-1.283,1.021c-0.475,0.324-0.99,0.583-1.533,0.771
				c-0.51,0.258-1.059,0.431-1.625,0.513c-0.534,0.098-1.074,0.155-1.617,0.171c-2.262-0.016-4.432-0.902-6.059-2.475
				C118.641,292.827,118.641,287.44,121.941,284.075z M121.941,318.209L121.941,318.209l1.275-1.026
				c0.477-0.324,0.996-0.583,1.542-0.771c0.483-0.245,1-0.417,1.534-0.508c1.093-0.258,2.232-0.258,3.325,0
				c0.566,0.079,1.115,0.25,1.625,0.508c0.543,0.188,1.059,0.447,1.533,0.771c0.425,0.341,0.858,0.683,1.283,1.025
				c3.3,3.365,3.3,8.752,0,12.117c-0.406,0.367-0.835,0.708-1.283,1.021c-0.475,0.324-0.99,0.583-1.533,0.771
				c-0.51,0.258-1.059,0.431-1.625,0.513c-0.534,0.098-1.074,0.155-1.617,0.171c-0.573-0.02-1.143-0.077-1.708-0.171
				c-0.533-0.095-1.05-0.268-1.533-0.513c-0.546-0.187-1.064-0.447-1.542-0.771c-0.446-0.313-0.872-0.654-1.275-1.021
				C118.641,326.961,118.641,321.573,121.941,318.209z M85.333,281.6c14.138,0,25.6,11.462,25.6,25.6s-11.462,25.6-25.6,25.6
				s-25.6-11.461-25.6-25.6C59.775,293.079,71.212,281.641,85.333,281.6z"/>
			<path d="M25.6,247.467h8.533V230.4H25.6c-4.713,0-8.533,3.82-8.533,8.533S20.887,247.467,25.6,247.467z"/>
			<path d="M494.933,238.933c-0.014-4.707-3.826-8.519-8.533-8.533h-8.533v17.067h8.533
				C491.107,247.453,494.919,243.64,494.933,238.933z"/>
			<circle cx="426.667" cy="307.2" r="8.533"/>
		</g>
	</g>
</g>
<g>
</g>
<g>
</g>
<g>
</g>
<g>
</g>
<g>
</g>
<g>
</g>
<g>
</g>
<g>
</g>
<g>
</g>
<g>
</g>
<g>
</g>
<g>
</g>
<g>
</g>
<g>
</g>
<g>
</g>
</svg>
