<svg height="480pt" viewBox="0 0 480 480" width="480pt" xmlns="http://www.w3.org/2000/svg"><path d="m32 32h72v16h-72zm0 0"/><path d="m32 56h96v16h-96zm0 0"/><path d="m80 80h48v16h-48zm0 0"/><path d="m32 80h40v16h-40zm0 0"/><path d="m32 104h96v16h-96zm0 0"/><path d="m80 128h48v16h-48zm0 0"/><path d="m32 128h40v16h-40zm0 0"/><path d="m112 32h16v16h-16zm0 0"/><path d="m32 312h72v16h-72zm0 0"/><path d="m32 336h96v16h-96zm0 0"/><path d="m112 312h16v16h-16zm0 0"/><path d="m256 24h72v16h-72zm0 0"/><path d="m256 48h96v16h-96zm0 0"/><path d="m336 24h16v16h-16zm0 0"/><path d="m256 256h72v16h-72zm0 0"/><path d="m256 280h96v16h-96zm0 0"/><path d="m336 256h16v16h-16zm0 0"/><path d="m472 0h-464c-4.417969 0-8 3.582031-8 8v464c0 4.417969 3.582031 8 8 8h464c4.417969 0 8-3.582031 8-8v-464c0-4.417969-3.582031-8-8-8zm-8 392h-56v-144h56zm-216 0v-144h144v144zm128 16v56h-32v-56zm88-264v88h-104v-88zm-120 88h-96v-88h96zm120-104h-72v-112h72zm-88 0h-128v-112h128zm-360-112h216v264h-216zm0 280h216v168h-216zm232 168v-56h80v56zm144 0v-56h32v56zm48 0v-56h24v56zm0 0"/></svg>