<svg height="472pt" viewBox="-3 0 471 472" width="472pt" xmlns="http://www.w3.org/2000/svg"><path d="m334.898438 69.535156c2.160156 1.367188 4.292968 2.78125 6.402343 4.242188 3.640625 2.503906 8.621094 1.582031 11.128907-2.058594 2.503906-3.640625 1.582031-8.621094-2.058594-11.125-2.277344-1.570312-4.585938-3.09375-6.925782-4.578125-3.734374-2.363281-8.675781-1.253906-11.042968 2.480469-2.363282 3.734375-1.25 8.675781 2.480468 11.039062zm0 0"/><path d="m411.699219 162.824219c.917969 2.375 1.789062 4.773437 2.617187 7.199219 1.457032 4.132812 5.964844 6.324218 10.113282 4.917968 4.148437-1.40625 6.394531-5.886718 5.039062-10.054687-.898438-2.664063-1.847656-5.277344-2.847656-7.839844-1.011719-2.695313-3.390625-4.640625-6.234375-5.09375s-5.710938.65625-7.507813 2.90625-2.25 5.292969-1.179687 7.964844zm0 0"/><path d="m398.332031 135.199219c1.296875 2.214843 2.550781 4.453125 3.761719 6.722656 1.390625 2.605469 4.105469 4.234375 7.0625 4.230469 1.3125.003906 2.605469-.320313 3.757812-.945313 3.898438-2.082031 5.371094-6.925781 3.289063-10.824219-1.304687-2.445312-2.65625-4.855468-4.054687-7.246093-2.269532-3.722657-7.101563-4.945313-10.867188-2.75-3.761719 2.199219-5.074219 7.007812-2.949219 10.8125zm0 0"/><path d="m365.101562 93.144531c3.222657 2.78125 8.058594 2.550781 11.003907-.527343 2.945312-3.074219 2.964843-7.917969.042969-11.015626-2.007813-1.914062-4.039063-3.785156-6.121094-5.601562-3.3125-2.925781-8.371094-2.609375-11.296875.703125-2.921875 3.316406-2.609375 8.371094.707031 11.296875 1.917969 1.640625 3.816406 3.375 5.664062 5.144531zm0 0"/><path d="m385.539062 116c1.628907 2.507812 4.523438 3.898438 7.496094 3.605469 2.976563-.296875 5.539063-2.226563 6.648438-5.003907 1.105468-2.777343.566406-5.941406-1.390625-8.203124-1.671875-2.21875-3.394531-4.394532-5.167969-6.535157-2.835938-3.320312-7.808594-3.753906-11.175781-.980469-3.367188 2.777344-3.886719 7.742188-1.167969 11.15625 1.625 1.964844 3.210938 3.949219 4.757812 5.960938zm0 0"/><path d="m52.085938 145.175781c1.152343.625 2.445312.949219 3.757812.945313 2.957031 0 5.671875-1.625 7.0625-4.234375 1.207031-2.265625 2.460938-4.503907 3.761719-6.71875 2.125-3.804688.8125-8.613281-2.949219-10.8125-3.765625-2.195313-8.597656-.976563-10.867188 2.75-1.398437 2.398437-2.75 4.796875-4.054687 7.246093-2.082031 3.898438-.609375 8.742188 3.289063 10.824219zm0 0"/><path d="m73.074219 119.199219c2.519531 0 4.890625-1.183594 6.402343-3.199219 1.546876-2.03125 3.144532-4.039062 4.800782-6.015625 2.71875-3.414063 2.195312-8.378906-1.171875-11.15625-3.367188-2.777344-8.339844-2.339844-11.171875.980469-1.773438 2.132812-3.496094 4.3125-5.167969 6.535156-1.820313 2.425781-2.113281 5.667969-.757813 8.378906 1.355469 2.710938 4.125 4.421875 7.15625 4.421875zm0 0"/><path d="m119.179688 75.199219c1.617187 0 3.195312-.492188 4.527343-1.40625 2.132813-1.457031 4.269531-2.871094 6.402344-4.242188 3.742187-2.359375 4.863281-7.304687 2.503906-11.046875-2.359375-3.742187-7.308593-4.863281-11.050781-2.503906-2.335938 1.488281-4.644531 3.011719-6.925781 4.574219-2.890625 1.988281-4.148438 5.625-3.105469 8.972656s4.140625 5.625 7.648438 5.621094zm0 0"/><path d="m94.371094 95.351562c2.058594.003907 4.039062-.789062 5.527344-2.207031 1.847656-1.769531 3.746093-3.503906 5.664062-5.199219 3.316406-2.925781 3.628906-7.984374.707031-11.296874-2.925781-3.3125-7.984375-3.628907-11.296875-.703126-2.082031 1.832032-4.113281 3.703126-6.121094 5.597657-2.363281 2.257812-3.113281 5.726562-1.898437 8.757812 1.214844 3.035157 4.152344 5.023438 7.417969 5.027344zm0 0"/><path d="m40.570312 175.03125c4.1875 1.417969 8.726563-.824219 10.144532-5.007812.828125-2.425782 1.699218-4.824219 2.617187-7.199219 1.070313-2.671875.621094-5.714844-1.179687-7.964844-1.796875-2.25-4.664063-3.359375-7.507813-2.90625s-5.222656 2.398437-6.234375 5.09375c-.996094 2.59375-1.945312 5.207031-2.847656 7.839844-1.417969 4.183593.824219 8.726562 5.007812 10.144531zm0 0"/><path d="m99.957031 370.902344c-3.199219-3.050782-8.261719-2.929688-11.3125.265625-3.050781 3.195312-2.933593 8.261719.261719 11.3125 2.078125 1.972656 4.191406 3.910156 6.347656 5.816406 2.121094 2.035156 5.1875 2.746094 7.988282 1.84375 2.800781-.898437 4.878906-3.261719 5.417968-6.15625.535156-2.890625-.558594-5.84375-2.847656-7.6875-2-1.777344-3.945312-3.570313-5.855469-5.394531zm0 0"/><path d="m131.277344 395.199219c-2.257813-1.402344-4.472656-2.84375-6.648438-4.328125-2.359375-1.65625-5.429687-1.917969-8.035156-.679688-2.605469 1.242188-4.34375 3.785156-4.546875 6.664063-.203125 2.875 1.160156 5.640625 3.566406 7.234375 2.367188 1.597656 4.765625 3.164062 7.199219 4.695312 3.753906 2.335938 8.691406 1.1875 11.023438-2.570312 2.332031-3.746094 1.1875-8.679688-2.558594-11.015625zm0 0"/><path d="m78.898438 347.199219c-2.648438-3.535157-7.664063-4.25-11.199219-1.597657-3.535157 2.648438-4.25 7.664063-1.597657 11.199219 1.71875 2.296875 3.496094 4.550781 5.300782 6.773438 2.796875 3.421875 7.839844 3.929687 11.261718 1.132812 3.421876-2.796875 3.929688-7.835937 1.132813-11.257812-1.664063-2.035157-3.296875-4.117188-4.898437-6.25zm0 0"/><path d="m365.042969 370.902344c-1.910157 1.824218-3.855469 3.617187-5.855469 5.371094-3.089844 2.964843-3.292969 7.839843-.464844 11.054687 2.832032 3.214844 7.691406 3.628906 11.023438.945313 2.160156-1.90625 4.277344-3.84375 6.347656-5.816407 3.195312-3.050781 3.3125-8.117187.261719-11.3125-3.050781-3.195312-8.113281-3.316406-11.3125-.265625zm0 0"/><path d="m386.101562 347.199219c-1.601562 2.132812-3.234374 4.214843-4.898437 6.25-2.796875 3.421875-2.289063 8.460937 1.132813 11.257812 3.421874 2.796875 8.464843 2.289063 11.261718-1.132812 1.804688-2.222657 3.582032-4.476563 5.300782-6.773438 2.652343-3.535156 1.9375-8.550781-1.597657-11.199219-3.535156-2.652343-8.550781-1.9375-11.199219 1.597657zm0 0"/><path d="m340.371094 390.855469c-2.175782 1.488281-4.390625 2.929687-6.648438 4.328125-3.03125 1.890625-4.445312 5.5625-3.460937 8.996094.984375 3.4375 4.128906 5.800781 7.703125 5.796874 1.488281 0 2.953125-.417968 4.214844-1.207031 2.441406-1.511719 4.84375-3.078125 7.199218-4.699219 2.40625-1.589843 3.769532-4.355468 3.566406-7.230468-.203124-2.878906-1.941406-5.425782-4.546874-6.664063-2.605469-1.238281-5.675782-.976562-8.035157.679688zm0 0"/><path d="m406.164062 339.257812c-2.859374 0-5.503906-1.523437-6.933593-4-1.429688-2.472656-1.433594-5.527343-.003907-8 .640626-1.121093 1.265626-2.234374 1.882813-3.363281 1.347656-2.546875 3.960937-4.171875 6.839844-4.253906 2.882812-.082031 5.582031 1.390625 7.074219 3.855469 1.492187 2.464844 1.542968 5.542968.132812 8.054687-.664062 1.226563-1.351562 2.402344-2.039062 3.648438-1.421876 2.503906-4.074219 4.054687-6.953126 4.058593zm0 0"/><path d="m66.835938 339.257812c2.859374 0 5.503906-1.523437 6.933593-4 1.429688-2.472656 1.433594-5.527343.003907-8-.640626-1.121093-1.265626-2.234374-1.882813-3.363281-1.347656-2.546875-3.960937-4.171875-6.839844-4.253906-2.882812-.082031-5.582031 1.390625-7.074219 3.855469-1.492187 2.464844-1.542968 5.542968-.132812 8.054687.664062 1.226563 1.351562 2.402344 2.039062 3.648438 1.421876 2.503906 4.074219 4.054687 6.953126 4.058593zm0 0"/><path d="m128.5 280v-16h-128v16h48v24h-24c-4.417969 0-8 3.582031-8 8s3.582031 8 8 8h80c4.417969 0 8-3.582031 8-8s-3.582031-8-8-8h-24v-24zm0 0"/><path d="m.5 184h128v72h-128zm0 0"/><path d="m464.5 280v-16h-128v16h48v24h-24c-4.417969 0-8 3.582031-8 8s3.582031 8 8 8h80c4.417969 0 8-3.582031 8-8s-3.582031-8-8-8h-24v-24zm0 0"/><path d="m336.5 184h128v72h-128zm0 0"/><path d="m168.5 0h128v72h-128zm0 0"/><path d="m296.5 96v-16h-128v16h48v24h-24c-4.417969 0-8 3.582031-8 8s3.582031 8 8 8h80c4.417969 0 8-3.582031 8-8s-3.582031-8-8-8h-24v-24zm0 0"/><path d="m296.5 432v-16h-128v16h48v24h-24c-4.417969 0-8 3.582031-8 8s3.582031 8 8 8h80c4.417969 0 8-3.582031 8-8s-3.582031-8-8-8h-24v-24zm0 0"/><path d="m168.5 336h128v72h-128zm0 0"/></svg>