<?xml version="1.0" encoding="iso-8859-1"?>
<!-- Generator: Adobe Illustrator 19.0.0, SVG Export Plug-In . SVG Version: 6.00 Build 0)  -->
<svg version="1.1" id="Layer_1" xmlns="http://www.w3.org/2000/svg" xmlns:xlink="http://www.w3.org/1999/xlink" x="0px" y="0px"
	 viewBox="0 0 512 512" style="enable-background:new 0 0 512 512;" xml:space="preserve">
<g>
	<g>
		<g>
			<path d="M422.741,42.667h-60.07V32.491C362.671,14.543,348.128,0,330.18,0H181.828c-17.947,0-32.491,14.543-32.491,32.491v10.176
				H89.259c-25.734,0-46.592,20.858-46.592,46.592v376.149c0,25.734,20.858,46.592,46.592,46.592h333.483
				c25.734,0,46.592-20.858,46.592-46.592V89.259C469.333,63.525,448.475,42.667,422.741,42.667z M192.004,42.667H320v42.667
				H192.004V42.667z M426.667,465.408c0,2.17-1.755,3.925-3.925,3.925H89.259c-2.17,0-3.925-1.755-3.925-3.925V89.259
				c0-2.17,1.755-3.925,3.925-3.925h60.075v10.176c0,17.947,14.543,32.491,32.491,32.491h0.004h148.348h0.004
				c17.947,0,32.491-14.543,32.491-32.491V85.333h60.07c2.17,0,3.925,1.755,3.925,3.925V465.408z"/>
			<path d="M249.752,262.248l-42.667-42.667c-0.004-0.004-0.008-0.006-0.011-0.01c-0.494-0.493-1.012-0.96-1.552-1.403
				c-0.247-0.203-0.507-0.379-0.761-0.569c-0.303-0.227-0.6-0.462-0.915-0.673c-0.304-0.203-0.619-0.379-0.93-0.565
				c-0.286-0.171-0.565-0.35-0.86-0.508c-0.317-0.17-0.643-0.313-0.967-0.466c-0.308-0.145-0.61-0.299-0.925-0.43
				c-0.314-0.13-0.635-0.235-0.953-0.349c-0.338-0.122-0.672-0.251-1.018-0.356c-0.318-0.096-0.642-0.167-0.964-0.248
				c-0.353-0.089-0.701-0.188-1.061-0.259c-0.372-0.074-0.748-0.117-1.122-0.171c-0.314-0.045-0.622-0.105-0.941-0.136
				c-1.4-0.138-2.81-0.138-4.21,0c-0.318,0.031-0.627,0.091-0.941,0.136c-0.375,0.054-0.75,0.097-1.122,0.171
				c-0.36,0.071-0.708,0.17-1.061,0.259c-0.322,0.081-0.645,0.151-0.963,0.248c-0.346,0.105-0.68,0.234-1.018,0.356
				c-0.318,0.114-0.639,0.219-0.953,0.349c-0.316,0.131-0.618,0.284-0.926,0.43c-0.323,0.152-0.649,0.296-0.966,0.465
				c-0.295,0.158-0.575,0.338-0.861,0.509c-0.311,0.186-0.626,0.361-0.929,0.564c-0.316,0.211-0.613,0.447-0.917,0.674
				c-0.253,0.19-0.513,0.365-0.759,0.568c-0.544,0.446-1.067,0.916-1.563,1.413l-42.667,42.667c-8.331,8.331-8.331,21.839,0,30.17
				c8.331,8.331,21.839,8.331,30.17,0l6.248-6.248V384c0,11.782,9.551,21.333,21.333,21.333c11.782,0,21.333-9.551,21.333-21.333
				v-97.83l6.248,6.248c8.331,8.331,21.839,8.331,30.17,0C258.083,284.087,258.083,270.58,249.752,262.248z"/>
			<path d="M347.582,326.248l-6.248,6.248v-97.83c0-11.782-9.551-21.333-21.333-21.333s-21.333,9.551-21.333,21.333v97.83
				l-6.248-6.248c-8.331-8.331-21.839-8.331-30.17,0c-8.331,8.331-8.331,21.839,0,30.17l42.667,42.667
				c0.004,0.004,0.008,0.006,0.011,0.01c0.494,0.493,1.012,0.96,1.552,1.403c0.247,0.203,0.507,0.379,0.761,0.569
				c0.303,0.227,0.6,0.462,0.915,0.673c0.304,0.203,0.619,0.379,0.93,0.565c0.286,0.171,0.565,0.35,0.86,0.508
				c0.317,0.17,0.643,0.313,0.967,0.466c0.308,0.145,0.61,0.299,0.925,0.43c0.314,0.13,0.635,0.235,0.953,0.349
				c0.338,0.122,0.672,0.251,1.018,0.356c0.318,0.096,0.642,0.167,0.964,0.248c0.353,0.089,0.701,0.188,1.061,0.259
				c0.372,0.074,0.748,0.117,1.122,0.171c0.314,0.045,0.622,0.105,0.941,0.136c0.693,0.068,1.388,0.105,2.083,0.105
				c0.007,0,0.015,0.001,0.022,0.001s0.015-0.001,0.022-0.001c0.695-0.001,1.39-0.037,2.083-0.105
				c0.318-0.031,0.627-0.091,0.941-0.136c0.375-0.054,0.75-0.097,1.122-0.171c0.359-0.071,0.708-0.17,1.061-0.259
				c0.322-0.081,0.645-0.152,0.964-0.248c0.346-0.105,0.68-0.234,1.018-0.356c0.318-0.114,0.639-0.219,0.953-0.349
				c0.315-0.131,0.618-0.284,0.925-0.43c0.324-0.153,0.65-0.296,0.967-0.466c0.294-0.158,0.574-0.337,0.86-0.508
				c0.311-0.186,0.626-0.362,0.93-0.565c0.315-0.211,0.612-0.446,0.915-0.673c0.254-0.19,0.514-0.366,0.761-0.569
				c0.54-0.443,1.059-0.91,1.552-1.403c0.004-0.004,0.008-0.006,0.011-0.01l42.667-42.667c8.331-8.331,8.331-21.839,0-30.17
				C369.42,317.917,355.913,317.917,347.582,326.248z"/>
		</g>
	</g>
</g>
<g>
</g>
<g>
</g>
<g>
</g>
<g>
</g>
<g>
</g>
<g>
</g>
<g>
</g>
<g>
</g>
<g>
</g>
<g>
</g>
<g>
</g>
<g>
</g>
<g>
</g>
<g>
</g>
<g>
</g>
</svg>
