<?xml version="1.0" encoding="iso-8859-1"?>
<!-- Generator: Adobe Illustrator 18.0.0, SVG Export Plug-In . SVG Version: 6.00 Build 0)  -->
<!DOCTYPE svg PUBLIC "-//W3C//DTD SVG 1.1//EN" "http://www.w3.org/Graphics/SVG/1.1/DTD/svg11.dtd">
<svg version="1.1" id="Capa_1" xmlns="http://www.w3.org/2000/svg" xmlns:xlink="http://www.w3.org/1999/xlink" x="0px" y="0px"
	 viewBox="0 0 494.533 494.533" style="enable-background:new 0 0 494.533 494.533;" xml:space="preserve">
<g id="XMLID_122_">
	<path id="XMLID_126_" d="M323.839,403.729c0,3.566-2.897,6.464-6.47,6.464H53.508c-3.572,0-6.471-2.897-6.471-6.464V52.345
		c0-3.565,2.898-6.463,6.471-6.463h263.861c3.572,0,6.47,2.897,6.47,6.463v22.65h47.055V31.001c0-17.12-13.877-30.997-30.988-30.997
		H30.986C13.875,0.004,0,13.881,0,31.001v432.532c0,17.12,13.875,30.996,30.986,30.996h308.919
		c17.111,0,30.988-13.876,30.988-30.996v-82.445h-47.055V403.729z M185.445,471.864c-10.816,0-19.573-8.765-19.573-19.575
		c0-10.81,8.757-19.575,19.573-19.575c10.819,0,19.577,8.766,19.577,19.575C205.022,463.099,196.265,471.864,185.445,471.864z"/>
	<path id="XMLID_123_" d="M475.382,107.965H147.095c-10.576,0-19.15,8.575-19.15,19.151v201.493c0,10.575,8.575,19.15,19.15,19.15
		h328.287c10.577,0,19.151-8.575,19.151-19.15V127.116C494.533,116.54,485.959,107.965,475.382,107.965z M462.768,297.914
		c5.545,4.606,5.978,12.964,0.939,18.119l0,0c-4.473,4.576-11.698,4.978-16.646,0.922c-28.03-22.984-86.013-71.604-86.013-71.604
		l-41.962,34.829c-2.28,1.892-5.056,2.838-7.848,2.838c-2.789,0-5.566-0.946-7.845-2.838l-41.964-34.829l-86.126,71.496
		c-5.195,4.342-12.947,3.645-17.305-1.604c-4.325-5.219-3.613-12.965,1.612-17.3l82.591-68.556l-82.591-68.551
		c-5.225-4.334-5.938-12.079-1.612-17.298c4.341-5.257,12.097-5.931,17.305-1.604l135.935,112.831l135.936-112.831
		c5.211-4.311,12.965-3.637,17.309,1.604c4.327,5.219,3.613,12.964-1.615,17.298l-82.59,68.551L462.768,297.914z"/>
</g>
<g>
</g>
<g>
</g>
<g>
</g>
<g>
</g>
<g>
</g>
<g>
</g>
<g>
</g>
<g>
</g>
<g>
</g>
<g>
</g>
<g>
</g>
<g>
</g>
<g>
</g>
<g>
</g>
<g>
</g>
</svg>
