<?xml version='1.0' encoding='iso-8859-1'?>
<!DOCTYPE svg PUBLIC '-//W3C//DTD SVG 1.1//EN' 'http://www.w3.org/Graphics/SVG/1.1/DTD/svg11.dtd'>
<svg version="1.1" xmlns="http://www.w3.org/2000/svg" viewBox="0 0 512 512" xmlns:xlink="http://www.w3.org/1999/xlink" enable-background="new 0 0 512 512">
  <g>
    <g>
      <path d="m448,32h-384c-8.836,0-16,7.164-16,16v256c0,8.836 7.164,16 16,16h384c8.836,0 16-7.164 16-16v-256c0-8.836-7.164-16-16-16zm-16,256h-352v-224h352v224z"/>
      <path d="m128,128h48c8.837,0 16-7.164 16-16s-7.163-16-16-16h-48c-8.837,0-16,7.164-16,16s7.163,16 16,16z"/>
      <path d="m128,192h48c8.837,0 16-7.164 16-16s-7.163-16-16-16h-48c-8.837,0-16,7.164-16,16s7.163,16 16,16z"/>
      <path d="m320,224h16v32c0,8.836 7.164,16 16,16 8.836,0 16-7.164 16-16v-32h16c5.898,0 11.32-3.25 14.109-8.453 2.781-5.203 2.477-11.516-0.797-16.422l-32-48c-5.937-8.906-20.687-8.906-26.625,0l-32,48c-3.273,4.906-3.578,11.219-0.797,16.422 2.79,5.203 8.212,8.453 14.11,8.453z"/>
    </g>
    <g>
      <path d="m496,480h-48c-8.836,0-16-7.164-16-16v-32h-136v32c0,8.836-7.164,16-16,16h-48c-8.836,0-16-7.164-16-16v-32h-136v32c0,8.836-7.164,16-16,16h-48c-8.836,0-16-7.164-16-16v-96c0-8.836 7.164-16 16-16h480c8.836,0 16,7.164 16,16v96c0,8.836-7.164,16-16,16zm-32-32h16v-64h-448v64h16v-32c0-8.836 7.164-16 16-16h168c8.836,0 16,7.164 16,16v32h16v-32c0-8.836 7.164-16 16-16h168c8.836,0 16,7.164 16,16v32z"/>
    </g>
  </g>
</svg>
