<?xml version="1.0" encoding="iso-8859-1"?>
<!-- Generator: Adobe Illustrator 19.0.0, SVG Export Plug-In . SVG Version: 6.00 Build 0)  -->
<svg version="1.1" id="Capa_1" xmlns="http://www.w3.org/2000/svg" xmlns:xlink="http://www.w3.org/1999/xlink" x="0px" y="0px"
	 viewBox="0 0 512 512" style="enable-background:new 0 0 512 512;" xml:space="preserve">
<g>
	<g>
		<path d="M500.803,432.008c6.175,0,11.197-5.023,11.197-11.197v-17.336c0-6.175-5.022-11.197-11.197-11.197h-12.366V245.839
			c0-0.776-0.118-1.523-0.338-2.227V110.406c0-4.127-3.345-7.472-7.472-7.472s-7.472,3.345-7.472,7.472v127.961H238V35.408
			c0-0.15,0.121-0.271,0.27-0.271h81.398v56.987c0,7.592,6.177,13.77,13.771,13.77h44.278c7.592,0,13.77-6.177,13.77-13.77V35.137
			h81.398c0.149,0,0.271,0.122,0.271,0.271V75.63c0,4.127,3.345,7.472,7.472,7.472s7.472-3.345,7.472-7.472V35.408
			c0-8.39-6.825-15.216-15.215-15.216H238.27c-8.39,0-15.215,6.826-15.215,15.216v202.959H38.779
			c-8.39,0-15.215,6.825-15.215,15.215v73.032c0,4.127,3.346,7.472,7.472,7.472c4.126,0,7.472-3.345,7.472-7.472v-73.032
			c0-0.149,0.121-0.27,0.27-0.27h87.053v38.622c0,7.593,6.177,13.771,13.77,13.771h47.607c7.593,0,13.77-6.177,13.77-13.771v-38.622
			h87.323v138.966H38.508v-30.675c0-4.127-3.346-7.472-7.472-7.472c-4.126,0-7.472,3.345-7.472,7.472v30.675h-10.1
			c-6.174,0-11.197,5.022-11.197,11.197v17.336c0,6.174,5.023,11.197,11.197,11.197h11.262v20.072H11.197
			C5.023,452.078,0,457.102,0,463.276v17.335c0,6.174,5.023,11.197,11.197,11.197h487.341c6.174,0,11.197-5.023,11.197-11.197
			v-17.335c0-6.174-5.023-11.197-11.197-11.197H485.01v-20.072H500.803z M334.613,35.137h41.928v55.812h-41.928V35.137z
			 M186.034,290.76h-45.257v-37.448h45.257V290.76z M374.785,253.312h27.168v37.448h-27.168V253.312z M303.246,253.312h56.594
			v38.622c0,7.593,6.177,13.771,13.771,13.771h29.517c7.593,0,13.771-6.177,13.771-13.771v-38.622h56.594v138.966H303.246V253.312z
			 M494.79,467.023v9.839H14.945v-9.839H494.79z M39.67,452.078v-20.072h9.839v20.072H39.67z M64.454,452.078v-20.072h65.41v20.072
			H64.454z M144.809,452.078v-20.072h9.839v20.072H144.809z M169.593,452.078v-20.072h65.41v20.072H169.593z M249.948,452.078
			v-20.072h9.839v20.072H249.948z M274.732,452.078v-20.072h65.409v20.072H274.732z M355.086,452.078v-20.072h9.84v20.072H355.086z
			 M379.871,452.078v-20.072h65.41v20.072H379.871z M460.226,452.078v-20.072h9.839v20.072H460.226z M17.211,417.063v-9.84h479.844
			v9.84H17.211z"/>
	</g>
</g>
<g>
</g>
<g>
</g>
<g>
</g>
<g>
</g>
<g>
</g>
<g>
</g>
<g>
</g>
<g>
</g>
<g>
</g>
<g>
</g>
<g>
</g>
<g>
</g>
<g>
</g>
<g>
</g>
<g>
</g>
</svg>
