<svg height="512pt" viewBox="0 0 512 511" width="512pt" xmlns="http://www.w3.org/2000/svg"><path d="m512 255.855469h-121v56.707031l121-29.988281zm0 0"/><path d="m391 462.5625 121-29.988281v-26.71875h-121zm0 0"/><path d="m361 255.855469h-90v60h-180v-60h-91v120h361zm0 0"/><path d="m361 119.855469h-210v-29.882813l199.378906-60.761718-8.757812-28.710938-194.765625 59.355469h-146.855469v166h361zm-120 76h-30v-30h30zm60 0h-30v-30h30zm0 0"/><path d="m121 405.855469h120v30h-120zm0 0"/><path d="m361 405.855469h-90v60h-180v-60h-91v106h361zm0 0"/><path d="m121 255.855469h120v30h-120zm0 0"/></svg>