<?xml version="1.0" encoding="iso-8859-1"?>
<!-- Generator: Adobe Illustrator 19.0.0, SVG Export Plug-In . SVG Version: 6.00 Build 0)  -->
<svg version="1.1" id="Capa_1" xmlns="http://www.w3.org/2000/svg" xmlns:xlink="http://www.w3.org/1999/xlink" x="0px" y="0px"
	 viewBox="0 0 512 512" style="enable-background:new 0 0 512 512;" xml:space="preserve">
<g>
	<g>
		<path d="M218.281,365.578l-18.731-6.03v-10.493c0-4.143-3.358-7.5-7.5-7.5h-20.642v-55.777h20.641v0c4.142,0,7.5-3.357,7.5-7.5
			v-10.492l18.731-6.029c9.552-3.075,15.724-11.546,15.724-21.579c0-10.032-6.172-18.503-15.724-21.578l-18.731-6.03v-10.493
			c0-4.143-3.358-7.5-7.5-7.5h-20.642v-12.469c0-4.143-3.358-7.5-7.5-7.5c-4.142,0-7.5,3.357-7.5,7.5v251.98h-47.885
			c-9.642,0-17.485-7.844-17.485-17.485v-0.052h20.705c12.912,0,23.417-10.505,23.417-23.417v-62.046c0-4.143-3.358-7.5-7.5-7.5
			c-4.142,0-7.5,3.357-7.5,7.5v62.046c0,4.642-3.776,8.417-8.417,8.417H77.936c-4.641,0-8.417-3.775-8.417-8.417V213.09
			c0-4.143-3.358-7.5-7.5-7.5c-4.142,0-7.5,3.357-7.5,7.5v180.046c0,12.272,9.491,22.362,21.518,23.333v0.135
			c0,17.912,14.573,32.485,32.485,32.485h19.746v17.292c0,9.149-7.443,16.594-16.593,16.594H58.466
			c-9.149,0-16.593-7.444-16.593-16.594V39.439c0-14.013-11.4-25.413-25.413-25.413H7.5c-4.142,0-7.5,3.357-7.5,7.5
			c0,4.143,3.358,7.5,7.5,7.5h8.961c5.742,0,10.413,4.671,10.413,10.413V466.38c0,17.421,14.172,31.594,31.593,31.594h53.209
			c17.42,0,31.593-14.173,31.593-31.594v-17.292h20.639c4.142,0,7.5-3.357,7.5-7.5v-8.832h20.642c4.142,0,7.5-3.357,7.5-7.5v-10.492
			l18.731-6.029c9.552-3.075,15.724-11.546,15.724-21.579C234.005,377.125,227.833,368.654,218.281,365.578z M199.55,228.33
			l14.134,4.55c4.937,1.589,5.321,5.988,5.321,7.299c0,1.312-0.384,5.711-5.321,7.3l-14.134,4.55V228.33z M171.407,209.578h13.142
			v61.201h-13.142V209.578z M184.549,417.758h-13.142v-61.201h13.142V417.758z M213.684,394.457l-14.134,4.55v-23.699l14.134,4.55
			c4.937,1.589,5.321,5.988,5.321,7.299C219.005,388.469,218.621,392.868,213.684,394.457z"/>
	</g>
</g>
<g>
	<g>
		<path d="M266.515,232.679h-12.933c-4.142,0-7.5,3.357-7.5,7.5s3.358,7.5,7.5,7.5h12.933c4.142,0,7.5-3.357,7.5-7.5
			S270.657,232.679,266.515,232.679z"/>
	</g>
</g>
<g>
	<g>
		<path d="M306.179,232.679h-12.933c-4.142,0-7.5,3.357-7.5,7.5s3.358,7.5,7.5,7.5h12.933c4.142,0,7.5-3.357,7.5-7.5
			S310.321,232.679,306.179,232.679z"/>
	</g>
</g>
<g>
	<g>
		<path d="M345.843,232.679H332.91c-4.142,0-7.5,3.357-7.5,7.5s3.358,7.5,7.5,7.5h12.933c4.142,0,7.5-3.357,7.5-7.5
			S349.985,232.679,345.843,232.679z"/>
	</g>
</g>
<g>
	<g>
		<path d="M385.507,232.679h-12.933c-4.142,0-7.5,3.357-7.5,7.5s3.358,7.5,7.5,7.5h12.933c4.142,0,7.5-3.357,7.5-7.5
			S389.649,232.679,385.507,232.679z"/>
	</g>
</g>
<g>
	<g>
		<path d="M425.171,232.679h-12.933c-4.142,0-7.5,3.357-7.5,7.5s3.358,7.5,7.5,7.5h12.933c4.142,0,7.5-3.357,7.5-7.5
			S429.313,232.679,425.171,232.679z"/>
	</g>
</g>
<g>
	<g>
		<path d="M464.836,232.679h-12.933c-4.142,0-7.5,3.357-7.5,7.5s3.358,7.5,7.5,7.5h12.933c4.142,0,7.5-3.357,7.5-7.5
			S468.978,232.679,464.836,232.679z"/>
	</g>
</g>
<g>
	<g>
		<path d="M504.5,232.679h-12.933c-4.142,0-7.5,3.357-7.5,7.5s3.358,7.5,7.5,7.5H504.5c4.142,0,7.5-3.357,7.5-7.5
			S508.642,232.679,504.5,232.679z"/>
	</g>
</g>
<g>
	<g>
		<path d="M218.28,71.622l-18.731-6.03V55.101c0-4.143-3.358-7.5-7.5-7.5h-20.642v-8.833c0-4.143-3.358-7.5-7.5-7.5h-55.385
			c-17.913,0-32.485,14.573-32.485,32.485v0.136c-12.026,0.971-21.518,11.06-21.518,23.332v91.69c0,4.143,3.358,7.5,7.5,7.5
			c4.142,0,7.5-3.357,7.5-7.5v-91.69c0-4.641,3.776-8.416,8.417-8.416h33.805c4.641,0,8.417,3.775,8.417,8.416v209.69
			c0,4.143,3.358,7.5,7.5,7.5c4.142,0,7.5-3.357,7.5-7.5V87.222c0-12.912-10.505-23.416-23.417-23.416H91.037v-0.053
			c0-9.642,7.844-17.485,17.485-17.485h47.885v101.4c0,4.143,3.358,7.5,7.5,7.5c4.142,0,7.5-3.357,7.5-7.5v-8.867h20.642
			c4.142,0,7.5-3.357,7.5-7.5v-10.492l18.731-6.029c9.552-3.075,15.724-11.546,15.724-21.579S227.832,74.697,218.28,71.622z
			 M184.549,123.801h-13.142v-61.2h13.142V123.801z M213.684,100.5l-14.134,4.55V81.351l14.134,4.55
			c4.937,1.589,5.321,5.988,5.321,7.299C219.004,94.512,218.621,98.911,213.684,100.5z"/>
	</g>
</g>
<g>
	<g>
		<path d="M266.515,85.7h-12.933c-4.142,0-7.5,3.357-7.5,7.5s3.358,7.5,7.5,7.5h12.933c4.142,0,7.5-3.357,7.5-7.5
			S270.657,85.7,266.515,85.7z"/>
	</g>
</g>
<g>
	<g>
		<path d="M306.179,85.7h-12.933c-4.142,0-7.5,3.357-7.5,7.5s3.358,7.5,7.5,7.5h12.933c4.142,0,7.5-3.357,7.5-7.5
			S310.321,85.7,306.179,85.7z"/>
	</g>
</g>
<g>
	<g>
		<path d="M345.843,85.7H332.91c-4.142,0-7.5,3.357-7.5,7.5s3.358,7.5,7.5,7.5h12.933c4.142,0,7.5-3.357,7.5-7.5
			S349.985,85.7,345.843,85.7z"/>
	</g>
</g>
<g>
	<g>
		<path d="M385.507,85.7h-12.933c-4.142,0-7.5,3.357-7.5,7.5s3.358,7.5,7.5,7.5h12.933c4.142,0,7.5-3.357,7.5-7.5
			S389.649,85.7,385.507,85.7z"/>
	</g>
</g>
<g>
	<g>
		<path d="M425.171,85.7h-12.933c-4.142,0-7.5,3.357-7.5,7.5s3.358,7.5,7.5,7.5h12.933c4.142,0,7.5-3.357,7.5-7.5
			S429.313,85.7,425.171,85.7z"/>
	</g>
</g>
<g>
	<g>
		<path d="M464.836,85.7h-12.933c-4.142,0-7.5,3.357-7.5,7.5s3.358,7.5,7.5,7.5h12.933c4.142,0,7.5-3.357,7.5-7.5
			S468.978,85.7,464.836,85.7z"/>
	</g>
</g>
<g>
	<g>
		<path d="M504.5,85.7h-12.933c-4.142,0-7.5,3.357-7.5,7.5s3.358,7.5,7.5,7.5H504.5c4.142,0,7.5-3.357,7.5-7.5
			S508.642,85.7,504.5,85.7z"/>
	</g>
</g>
<g>
	<g>
		<path d="M266.515,379.657h-12.933c-4.142,0-7.5,3.357-7.5,7.5s3.358,7.5,7.5,7.5h12.933c4.142,0,7.5-3.357,7.5-7.5
			S270.657,379.657,266.515,379.657z"/>
	</g>
</g>
<g>
	<g>
		<path d="M306.179,379.657h-12.933c-4.142,0-7.5,3.357-7.5,7.5s3.358,7.5,7.5,7.5h12.933c4.142,0,7.5-3.357,7.5-7.5
			S310.321,379.657,306.179,379.657z"/>
	</g>
</g>
<g>
	<g>
		<path d="M345.843,379.657H332.91c-4.142,0-7.5,3.357-7.5,7.5s3.358,7.5,7.5,7.5h12.933c4.142,0,7.5-3.357,7.5-7.5
			S349.985,379.657,345.843,379.657z"/>
	</g>
</g>
<g>
	<g>
		<path d="M385.507,379.657h-12.933c-4.142,0-7.5,3.357-7.5,7.5s3.358,7.5,7.5,7.5h12.933c4.142,0,7.5-3.357,7.5-7.5
			S389.649,379.657,385.507,379.657z"/>
	</g>
</g>
<g>
	<g>
		<path d="M425.171,379.657h-12.933c-4.142,0-7.5,3.357-7.5,7.5s3.358,7.5,7.5,7.5h12.933c4.142,0,7.5-3.357,7.5-7.5
			S429.313,379.657,425.171,379.657z"/>
	</g>
</g>
<g>
	<g>
		<path d="M464.836,379.657h-12.933c-4.142,0-7.5,3.357-7.5,7.5s3.358,7.5,7.5,7.5h12.933c4.142,0,7.5-3.357,7.5-7.5
			S468.978,379.657,464.836,379.657z"/>
	</g>
</g>
<g>
	<g>
		<path d="M504.5,379.657h-12.933c-4.142,0-7.5,3.357-7.5,7.5s3.358,7.5,7.5,7.5H504.5c4.142,0,7.5-3.357,7.5-7.5
			S508.642,379.657,504.5,379.657z"/>
	</g>
</g>
<g>
	<g>
		<path d="M94.838,133.095c-4.142,0-7.5,3.357-7.5,7.5v0.616c0,4.143,3.358,7.5,7.5,7.5c4.142,0,7.5-3.357,7.5-7.5v-0.616
			C102.338,136.452,98.98,133.095,94.838,133.095z"/>
	</g>
</g>
<g>
	<g>
		<path d="M94.838,113.034c-4.142,0-7.5,3.357-7.5,7.5v0.615c0,4.143,3.358,7.5,7.5,7.5c4.142,0,7.5-3.357,7.5-7.5v-0.615
			C102.338,116.391,98.98,113.034,94.838,113.034z"/>
	</g>
</g>
<g>
	<g>
		<path d="M94.838,92.973c-4.142,0-7.5,3.357-7.5,7.5v0.615c0,4.142,3.358,7.5,7.5,7.5c4.142,0,7.5-3.357,7.5-7.5v-0.615
			C102.338,96.33,98.98,92.973,94.838,92.973z"/>
	</g>
</g>
<g>
</g>
<g>
</g>
<g>
</g>
<g>
</g>
<g>
</g>
<g>
</g>
<g>
</g>
<g>
</g>
<g>
</g>
<g>
</g>
<g>
</g>
<g>
</g>
<g>
</g>
<g>
</g>
<g>
</g>
</svg>
