<?xml version="1.0" encoding="iso-8859-1"?>
<!-- Generator: Adobe Illustrator 19.0.0, SVG Export Plug-In . SVG Version: 6.00 Build 0)  -->
<svg version="1.1" id="Layer_1" xmlns="http://www.w3.org/2000/svg" xmlns:xlink="http://www.w3.org/1999/xlink" x="0px" y="0px"
	 viewBox="0 0 512 512" style="enable-background:new 0 0 512 512;" xml:space="preserve">
<g>
	<g>
		<path d="M504.076,346.174h-21.917c-1.827-5.834-4.165-11.481-6.991-16.886l15.496-15.494c1.487-1.485,2.321-3.502,2.321-5.604
			s-0.835-4.116-2.321-5.604l-32.496-32.494c-3.094-3.094-8.111-3.094-11.206,0l-15.494,15.495
			c-5.403-2.825-11.052-5.163-16.886-6.99v-21.92c0-4.377-3.547-7.924-7.924-7.924h-45.952c-4.377,0-7.924,3.547-7.924,7.924v21.92
			c-5.836,1.828-11.484,4.166-16.886,6.991l-15.494-15.495c-1.485-1.487-3.501-2.321-5.604-2.321c-2.103,0-4.116,0.835-5.603,2.32
			l-32.495,32.494c-1.487,1.487-2.321,3.501-2.321,5.604c0,2.101,0.835,4.117,2.32,5.604l15.494,15.493
			c-2.825,5.403-5.163,11.051-6.99,16.888h-21.918c-4.377,0-7.924,3.547-7.924,7.924v45.952c0,4.377,3.547,7.924,7.924,7.924h21.917
			c1.827,5.833,4.164,11.481,6.991,16.887L276.7,440.354c-3.095,3.096-3.095,8.112,0,11.207l32.495,32.496
			c1.487,1.487,3.501,2.321,5.604,2.321s4.117-0.835,5.604-2.321l15.493-15.495c5.406,2.828,11.053,5.166,16.888,6.992v21.918
			c0,4.377,3.547,7.924,7.924,7.924h45.952c4.377,0,7.924-3.547,7.924-7.924v-21.918c5.832-1.827,11.48-4.165,16.886-6.993
			l15.494,15.496c1.485,1.487,3.501,2.321,5.604,2.321s4.116-0.835,5.604-2.32l32.496-32.496c1.485-1.487,2.32-3.501,2.32-5.604
			c0-2.101-0.835-4.117-2.321-5.604l-15.496-15.495c2.827-5.406,5.165-11.055,6.991-16.885h21.917c4.377,0,7.924-3.547,7.924-7.924
			v-45.952C512,349.721,508.453,346.174,504.076,346.174z M496.152,392.126h-19.998c-3.642,0-6.815,2.483-7.69,6.017
			c-2.099,8.467-5.44,16.535-9.93,23.982c-1.881,3.12-1.392,7.12,1.183,9.696l14.139,14.137l-21.289,21.288l-14.137-14.14
			c-2.576-2.576-6.577-3.065-9.697-1.182c-7.446,4.492-15.515,7.834-23.98,9.93c-3.535,0.876-6.018,4.05-6.018,7.692v20h-30.104v-20
			c0-3.642-2.484-6.816-6.018-7.692c-8.471-2.097-16.538-5.439-23.978-9.929c-3.122-1.884-7.122-1.396-9.699,1.181l-14.137,14.14
			l-21.288-21.288l14.138-14.137c2.576-2.576,3.063-6.577,1.181-9.697c-4.488-7.441-7.829-15.51-9.929-23.981
			c-0.876-3.535-4.049-6.017-7.69-6.017h-20v-30.104h19.998c3.642,0,6.815-2.483,7.69-6.016c2.102-8.479,5.443-16.547,9.928-23.981
			c1.883-3.12,1.396-7.121-1.18-9.698l-14.138-14.137l21.288-21.287l14.137,14.139c2.576,2.576,6.577,3.066,9.698,1.181
			c7.434-4.485,15.503-7.827,23.982-9.93c3.534-0.877,6.015-4.05,6.015-7.69v-20h30.105v20c0,3.641,2.482,6.814,6.015,7.69
			c8.477,2.104,16.546,5.444,23.984,9.93c3.119,1.882,7.119,1.39,9.696-1.182l14.137-14.138l21.288,21.287l-14.137,14.136
			c-2.576,2.577-3.064,6.577-1.182,9.697c4.487,7.439,7.828,15.509,9.929,23.982c0.876,3.534,4.049,6.016,7.69,6.016h19.998V392.126
			z"/>
	</g>
</g>
<g>
	<g>
		<path d="M382.586,308.693c-37.704,0-68.378,30.676-68.378,68.383c0,37.705,30.673,68.381,68.378,68.381
			c37.705,0,68.382-30.675,68.382-68.381C450.968,339.37,420.292,308.693,382.586,308.693z M382.586,429.608
			c-28.965,0-52.53-23.566-52.53-52.533c0-28.968,23.565-52.535,52.53-52.535c28.967,0,52.534,23.567,52.534,52.535
			C435.12,406.042,411.553,429.608,382.586,429.608z"/>
	</g>
</g>
<g>
	<g>
		<path d="M424.447,175.124h-42.216c-3.599-12.566-8.598-24.643-14.92-36.04l29.849-29.844c1.487-1.485,2.321-3.501,2.321-5.604
			c0-2.101-0.835-4.116-2.32-5.604l-56.212-56.211c-3.096-3.094-8.113-3.094-11.206,0l-29.849,29.847
			c-11.39-6.319-23.469-11.319-36.041-14.92V14.529c0-4.377-3.547-7.924-7.924-7.924H176.44c-4.377,0-7.924,3.547-7.924,7.924
			v42.219c-12.577,3.603-24.657,8.605-36.042,14.923l-29.845-29.847c-1.486-1.487-3.501-2.321-5.604-2.321
			c-2.102,0-4.117,0.835-5.604,2.321L35.215,98.035c-3.095,3.095-3.095,8.111,0,11.206l29.845,29.844
			c-6.319,11.39-11.32,23.469-14.92,36.04H7.924c-4.377,0-7.924,3.548-7.924,7.924v79.49c0,4.377,3.547,7.924,7.924,7.924h42.215
			c3.601,12.568,8.602,24.647,14.921,36.039L35.215,336.35c-3.095,3.095-3.095,8.111,0,11.206l56.206,56.211
			c1.487,1.487,3.501,2.321,5.604,2.321c2.103,0,4.117-0.835,5.604-2.321l29.844-29.85c11.396,6.324,23.476,11.327,36.043,14.927
			v42.218c0,4.377,3.547,7.924,7.924,7.924h62.685c2.597,0,5.03-1.273,6.51-3.407c1.48-2.134,1.821-4.858,0.912-7.29
			c-6.116-16.37-9.217-33.602-9.217-51.213c0-17.123,2.933-33.901,8.72-49.869c0.991-2.739,0.401-5.801-1.538-7.975
			c-1.939-2.174-4.913-3.11-7.749-2.433c-7.393,1.761-14.953,2.655-22.471,2.655c-53.293,0-96.651-43.359-96.651-96.653
			c0-53.297,43.358-96.658,96.651-96.658c53.296,0,96.655,43.361,96.655,96.658c0,4.459-0.329,9.043-0.976,13.626
			c-0.407,2.884,0.802,5.761,3.147,7.489c2.348,1.728,5.45,2.027,8.086,0.783c19.612-9.274,40.633-13.977,62.477-13.977
			c13.098,0,26.111,1.741,38.677,5.175c2.385,0.653,4.934,0.154,6.897-1.345c1.963-1.499,3.116-3.829,3.116-6.299v-45.203
			C432.371,178.672,428.824,175.124,424.447,175.124z M416.525,218.212c-10.777-2.219-21.785-3.34-32.843-3.34
			c-19.686,0-38.772,3.45-56.912,10.268c0.018-0.783,0.025-1.565,0.025-2.342c0-62.036-50.469-112.505-112.503-112.505
			c-62.033,0-112.499,50.47-112.499,112.505c0,62.034,50.467,112.501,112.499,112.501c4.274,0,8.559-0.247,12.824-0.74
			c-3.742,13.801-5.633,28.049-5.633,42.514c0,15.716,2.23,31.162,6.642,46.064h-43.76v-40.378c0-3.642-2.483-6.815-6.017-7.69
			c-15.22-3.773-29.714-9.776-43.078-17.843c-3.121-1.884-7.122-1.395-9.699,1.181l-28.545,28.551l-45.001-45.004l28.545-28.548
			c2.576-2.576,3.063-6.577,1.181-9.696c-8.061-13.363-14.062-27.855-17.837-43.078c-0.876-3.535-4.049-6.017-7.69-6.017H15.848
			v-63.642h40.375c3.641,0,6.814-2.483,7.69-6.016c3.777-15.228,9.778-29.721,17.837-43.079c1.882-3.119,1.394-7.12-1.181-9.697
			l-28.545-28.543l45.001-45.004l28.545,28.548c2.576,2.576,6.576,3.064,9.699,1.181c13.349-8.058,27.844-14.06,43.079-17.841
			c3.535-0.877,6.016-4.05,6.016-7.69V22.455h63.64v40.378c0,3.641,2.482,6.814,6.016,7.69c15.229,3.777,29.723,9.779,43.08,17.837
			c3.12,1.882,7.121,1.391,9.696-1.181l28.548-28.547l45.006,45.005l-28.548,28.544c-2.576,2.576-3.064,6.577-1.182,9.697
			c8.063,13.366,14.065,27.861,17.836,43.078c0.876,3.535,4.049,6.017,7.69,6.017h40.378V218.212z"/>
	</g>
</g>
<g>
	<g>
		<path d="M285.998,183.851c-2.082-3.849-6.89-5.281-10.74-3.199c-3.85,2.082-5.282,6.891-3.199,10.74
			c5.162,9.544,7.891,20.364,7.891,31.29c0,36.317-29.546,65.864-65.863,65.864c-36.317,0-65.864-29.547-65.864-65.864
			c0-36.317,29.547-65.863,65.864-65.863c14.913,0,28.976,4.859,40.668,14.052c3.442,2.704,8.424,2.107,11.127-1.332
			c2.705-3.441,2.108-8.423-1.332-11.127c-14.513-11.409-31.963-17.44-50.464-17.44c-45.057,0-81.712,36.655-81.712,81.711
			c0,45.057,36.655,81.712,81.712,81.712c45.056,0,81.711-36.655,81.711-81.712C295.797,209.13,292.409,195.703,285.998,183.851z"/>
	</g>
</g>
<g>
	<g>
		<path d="M382.588,339.289c-20.835,0-37.786,16.951-37.786,37.786c0,20.835,16.951,37.786,37.786,37.786
			c20.835,0,37.786-16.951,37.786-37.786C420.374,356.24,403.423,339.289,382.588,339.289z M382.588,399.012
			c-12.096,0-21.938-9.841-21.938-21.938c0-12.097,9.841-21.938,21.938-21.938c12.097,0,21.938,9.84,21.938,21.938
			C404.526,389.171,394.684,399.012,382.588,399.012z"/>
	</g>
</g>
<g>
</g>
<g>
</g>
<g>
</g>
<g>
</g>
<g>
</g>
<g>
</g>
<g>
</g>
<g>
</g>
<g>
</g>
<g>
</g>
<g>
</g>
<g>
</g>
<g>
</g>
<g>
</g>
<g>
</g>
</svg>
