<?xml version="1.0" encoding="iso-8859-1"?>
<!-- Generator: Adobe Illustrator 18.0.0, SVG Export Plug-In . SVG Version: 6.00 Build 0)  -->
<!DOCTYPE svg PUBLIC "-//W3C//DTD SVG 1.1//EN" "http://www.w3.org/Graphics/SVG/1.1/DTD/svg11.dtd">
<svg version="1.1" id="Capa_1" xmlns="http://www.w3.org/2000/svg" xmlns:xlink="http://www.w3.org/1999/xlink" x="0px" y="0px"
	 viewBox="0 0 493.864 493.864" style="enable-background:new 0 0 493.864 493.864;" xml:space="preserve">
<g>
	<path d="M319.326,280.252v38.508c85.474,11.63,135.736,42.425,135.736,65.925c0,29.52-79.18,70.689-208.13,70.689
		s-208.13-41.169-208.13-70.689c0-23.5,50.279-54.295,135.736-65.925v-38.508C81.163,292.424,0.31,328.127,0.31,384.684
		c0,70.912,127.072,109.18,246.622,109.18c119.551,0,246.622-38.268,246.622-109.18C493.554,328.127,412.7,292.424,319.326,280.252z
		"/>
	<path d="M43.359,113.258c2.597,2.962,6.356,4.651,10.29,4.651h120.89h32.629v50.98h-32.629h-50.502
		c-7.584,0-13.733,6.15-13.733,13.733v52.064c0,7.584,6.149,13.733,13.733,13.733h50.502h32.629v122.531
		c0,7.582,6.15,13.732,13.732,13.732h52.064c7.582,0,13.732-6.15,13.732-13.732V248.421h32.629h64.811
		c3.935,0,7.693-1.689,10.291-4.651l22.941-26.032c4.572-5.194,4.572-12.969,0-18.162l-22.941-26.032
		c-2.598-2.963-6.356-4.653-10.291-4.653h-64.811h-32.629v-50.98h27.053c1.992,0,3.871-0.462,5.576-1.228
		c4.795-2.149,8.156-6.913,8.156-12.506V52.111c0-5.591-3.361-10.354-8.156-12.507c-1.705-0.763-3.584-1.227-5.576-1.227h-27.053
		V13.732c0-7.583-6.15-13.732-13.732-13.732H220.9c-7.583,0-13.732,6.149-13.732,13.732v24.646h-32.629H53.649
		c-3.935,0-7.693,1.69-10.29,4.652L20.415,69.063c-4.57,5.193-4.57,12.968,0,18.162L43.359,113.258z"/>
</g>
<g>
</g>
<g>
</g>
<g>
</g>
<g>
</g>
<g>
</g>
<g>
</g>
<g>
</g>
<g>
</g>
<g>
</g>
<g>
</g>
<g>
</g>
<g>
</g>
<g>
</g>
<g>
</g>
<g>
</g>
</svg>
