<?xml version="1.0" encoding="iso-8859-1"?>
<!-- Generator: Adobe Illustrator 19.0.0, SVG Export Plug-In . SVG Version: 6.00 Build 0)  -->
<svg version="1.1" id="Layer_1" xmlns="http://www.w3.org/2000/svg" xmlns:xlink="http://www.w3.org/1999/xlink" x="0px" y="0px"
	 viewBox="0 0 512.005 512.005" style="enable-background:new 0 0 512.005 512.005;" xml:space="preserve">
<g>
	<g>
		<g>
			<path d="M426.672,170.669V21.336c0-11.797-9.536-21.333-21.333-21.333H256.005c-5.675,0-11.072,2.24-15.083,6.251L6.256,240.92
				c-8.341,8.341-8.341,21.824,0,30.165l149.333,149.333c4.16,4.16,9.621,6.251,15.083,6.251c5.461,0,10.923-2.091,15.083-6.251
				l234.667-234.667C424.432,181.741,426.672,176.344,426.672,170.669z M320.005,149.336c-23.595,0-42.667-19.136-42.667-42.667
				c0-23.573,19.072-42.667,42.667-42.667c23.552,0,42.667,19.093,42.667,42.667C362.672,130.2,343.557,149.336,320.005,149.336z"/>
			<polygon points="448.005,405.336 448.005,341.336 405.339,341.336 405.339,405.336 341.339,405.336 341.339,448.003 
				405.339,448.003 405.339,512.003 448.005,512.003 448.005,448.003 512.005,448.003 512.005,405.336 			"/>
		</g>
	</g>
</g>
<g>
</g>
<g>
</g>
<g>
</g>
<g>
</g>
<g>
</g>
<g>
</g>
<g>
</g>
<g>
</g>
<g>
</g>
<g>
</g>
<g>
</g>
<g>
</g>
<g>
</g>
<g>
</g>
<g>
</g>
</svg>
